<?xml version="1.0" standalone="no"?>
<!DOCTYPE svg PUBLIC "-//W3C//DTD SVG 20010904//EN"
 "http://www.w3.org/TR/2001/REC-SVG-20010904/DTD/svg10.dtd">
<svg version="1.0" xmlns="http://www.w3.org/2000/svg"
 width="513.000000pt" height="520.000000pt" viewBox="0 0 513.000000 520.000000"
 preserveAspectRatio="xMidYMid meet">

<g transform="translate(0.000000,520.000000) scale(0.100000,-0.100000)"
fill="#000000" stroke="none">
<path d="M2350 4980 c0 -4 -27 -12 -61 -19 -75 -15 -110 -31 -102 -45 3 -6 3
-8 -1 -4 -15 13 -171 -86 -160 -103 3 -5 1 -8 -4 -7 -29 9 -197 -142 -208
-188 -4 -16 -18 -49 -33 -74 -21 -36 -26 -60 -29 -137 -3 -63 -1 -98 8 -108 6
-8 9 -19 5 -25 -3 -5 0 -13 8 -16 8 -3 14 -18 14 -37 0 -80 25 -219 45 -242
21 -24 -2 -95 -31 -95 -14 0 -14 -22 1 -55 13 -29 33 -32 47 -7 10 16 10 15
11 -3 0 -11 4 -25 8 -32 4 -6 7 36 7 93 0 57 -3 104 -7 104 -8 0 -4 27 5 36 3
4 2 15 -4 26 -5 10 -7 23 -4 28 3 5 1 11 -5 15 -15 10 -12 23 8 28 16 4 16 5
-1 6 -16 1 -16 3 -2 24 8 13 12 27 8 31 -4 4 1 4 12 0 18 -7 18 -6 7 9 -8 8
-20 13 -28 10 -10 -4 -12 0 -8 11 3 9 11 16 18 16 6 0 20 17 31 37 35 64 54
83 86 83 22 0 43 15 94 65 71 71 87 75 145 34 16 -11 36 -15 54 -12 18 4 31 1
37 -8 6 -9 9 -10 9 -2 0 6 8 12 18 12 9 0 35 4 57 10 45 11 84 19 135 28 19 3
62 14 94 24 124 39 179 20 228 -79 18 -35 32 -73 34 -85 1 -12 4 -33 8 -46 3
-14 1 -31 -6 -38 -8 -10 -6 -18 7 -33 11 -12 15 -26 11 -37 -6 -15 -8 -15 -17
-3 -7 12 -8 10 -6 -7 2 -11 8 -27 15 -35 12 -15 24 -135 26 -265 0 -46 4 -83
9 -83 4 0 7 9 7 20 0 23 20 70 30 70 4 0 5 -11 2 -25 -5 -28 15 -35 25 -9 12
33 8 60 -14 81 -25 24 -24 59 4 120 14 31 20 66 14 88 -9 29 2 68 24 89 38 36
46 70 43 200 -1 67 -5 110 -8 96 l-6 -25 -8 30 c-7 26 -9 27 -15 11 -6 -16
-11 -10 -23 27 -17 53 -15 59 6 20 8 -16 15 -23 16 -18 0 15 -36 67 -46 66 -5
-1 -9 2 -9 7 -1 11 -63 94 -68 90 -2 -2 -22 20 -44 47 -68 86 -153 145 -190
131 -7 -3 -30 3 -51 14 -20 11 -42 20 -48 20 -6 0 -33 12 -60 27 -38 22 -62
28 -111 28 -35 0 -63 -2 -63 -5z m425 -140 c3 -6 -1 -7 -9 -4 -18 7 -21 14 -7
14 6 0 13 -4 16 -10z m40 -48 c-3 -3 -11 0 -18 7 -9 10 -8 11 6 5 10 -3 15 -9
12 -12z m-822 -79 c-7 -2 -21 -2 -30 0 -10 3 -4 5 12 5 17 0 24 -2 18 -5z
m1073 -408 c-11 -43 -26 -78 -32 -72 -6 6 25 97 33 97 3 0 2 -11 -1 -25z"/>
<path d="M3080 4250 c-6 -11 -8 -20 -6 -20 3 0 10 9 16 20 6 11 8 20 6 20 -3
0 -10 -9 -16 -20z"/>
<path d="M3023 4055 c-3 -9 1 -38 10 -63 l15 -47 1 57 c1 56 -13 85 -26 53z"/>
<path d="M2057 4036 c-7 -6 -25 -17 -42 -25 -27 -12 -28 -14 -10 -21 11 -4 41
-10 68 -14 26 -4 47 -10 47 -14 0 -4 -19 -14 -41 -22 -27 -10 -45 -23 -50 -38
-9 -23 -8 -24 30 -17 34 6 41 3 51 -14 6 -12 18 -21 26 -21 8 0 12 -4 9 -10
-3 -5 -21 -10 -40 -10 -28 0 -32 -3 -28 -20 5 -20 23 -28 23 -10 0 6 4 10 10
10 5 0 7 -7 4 -15 -10 -24 25 -29 75 -11 25 9 56 16 67 16 31 0 84 64 84 100
0 38 9 60 26 60 8 0 14 4 14 8 0 17 -13 21 -31 11 -14 -7 -19 -6 -19 3 0 30
-90 60 -193 63 -40 1 -73 -2 -80 -9z m70 -132 c-3 -3 -12 -4 -19 -1 -8 3 -5 6
6 6 11 1 17 -2 13 -5z m113 -4 c0 -5 -4 -10 -10 -10 -5 0 -10 5 -10 10 0 6 5
10 10 10 6 0 10 -4 10 -10z"/>
<path d="M2564 4042 c-53 -4 -102 -49 -86 -79 7 -12 7 -25 1 -36 -13 -22 11
-69 48 -95 30 -21 120 -35 129 -21 3 5 22 9 42 10 l37 1 -31 7 c-35 9 -54 19
-54 30 0 8 57 30 97 37 32 6 44 14 21 14 -9 0 -31 7 -49 15 -35 16 -20 16 41
0 24 -6 24 -6 6 9 -10 8 -38 18 -62 22 -24 3 -44 10 -44 14 0 9 50 20 91 20
16 0 29 4 29 9 0 5 8 11 18 13 12 3 5 10 -23 22 -38 16 -77 18 -211 8z"/>
<path d="M1770 3990 c0 -25 4 -39 10 -35 6 3 10 19 10 35 0 16 -4 32 -10 35
-6 4 -10 -10 -10 -35z"/>
<path d="M2240 3750 c-6 -12 -9 -24 -7 -27 3 -2 11 5 17 17 6 12 9 24 7 27 -3
2 -11 -5 -17 -17z"/>
<path d="M2927 3745 c-4 -8 -2 -17 3 -20 6 -4 10 3 10 14 0 25 -6 27 -13 6z"/>
<path d="M2562 3679 c-1 -22 1 -38 6 -36 4 2 21 -2 37 -10 21 -10 23 -13 8 -9
-31 6 -29 1 18 -42 26 -25 38 -43 34 -54 -6 -16 -81 -53 -100 -49 -5 1 -5 -3
2 -10 13 -13 -1 -54 -16 -44 -5 3 -11 -1 -14 -9 -3 -8 -18 -12 -39 -11 -18 1
-36 -2 -39 -7 -4 -6 -32 -6 -77 1 -95 15 -122 26 -122 51 0 14 -7 20 -24 20
-13 0 -33 8 -45 18 -18 15 -19 20 -8 42 15 29 51 42 40 14 -4 -10 -2 -15 4
-11 5 3 29 -4 53 -15 26 -13 38 -24 29 -27 -20 -6 -40 -29 -31 -35 4 -2 32 -7
62 -11 29 -3 57 -8 61 -11 4 -2 11 0 14 6 4 6 21 10 38 8 28 -3 32 0 32 21 0
24 -2 25 -62 22 -41 -2 -63 1 -63 9 0 7 12 9 34 4 51 -9 126 21 126 52 0 20
-4 22 -37 18 -87 -10 -159 -12 -178 -7 -18 6 -17 8 10 20 l30 14 -37 -5 c-46
-6 -60 13 -51 68 3 22 2 36 -5 36 -13 0 -24 -44 -16 -64 8 -22 -22 -21 -34 0
-9 15 -12 15 -42 -2 -18 -11 -47 -32 -65 -47 -29 -25 -31 -32 -25 -65 4 -20
15 -57 24 -81 9 -24 13 -47 10 -52 -3 -5 -1 -9 4 -9 5 0 9 -22 9 -50 1 -27 -3
-50 -8 -50 -5 0 -8 3 -8 8 5 27 -2 35 -15 17 -12 -17 -12 -24 0 -48 8 -15 19
-25 24 -22 6 4 10 -4 10 -17 0 -21 -1 -21 -22 9 -13 17 -31 36 -41 42 -16 11
-17 10 -8 -7 5 -10 17 -24 25 -32 9 -7 16 -17 16 -23 0 -16 110 -137 147 -161
18 -11 33 -29 33 -39 0 -10 5 -15 11 -12 6 4 13 -2 16 -14 3 -12 9 -21 14 -21
4 0 6 -10 4 -22 -5 -25 16 -52 58 -73 32 -16 60 -8 71 20 3 8 15 15 27 15 15
0 19 4 15 16 -4 9 2 22 14 32 12 10 26 28 33 42 7 14 29 33 50 43 20 9 37 21
37 27 0 5 16 17 36 26 25 12 32 19 22 25 -10 6 -1 20 33 56 88 92 165 203 156
226 -3 7 -9 0 -16 -15 -10 -27 -31 -39 -31 -17 0 5 5 7 12 3 7 -4 8 -3 4 5
-11 18 -36 -5 -31 -29 3 -13 -1 -17 -11 -13 -8 3 -13 8 -10 10 3 3 0 16 -5 30
-7 20 -5 34 9 62 11 20 23 52 26 71 8 38 12 44 -83 -135 -17 -33 -32 -56 -32
-52 -1 4 -2 11 -3 16 0 5 -4 13 -8 17 -13 13 -9 24 7 18 10 -4 15 0 15 12 0
11 11 50 25 88 14 38 25 74 25 81 0 22 -170 175 -194 175 -1 0 -3 -18 -4 -41z
m-282 -125 c0 -10 -30 -3 -43 11 -8 8 -18 11 -21 7 -4 -3 -4 1 0 11 6 16 8 15
35 -4 16 -11 29 -22 29 -25z m365 -146 c9 -30 6 -70 -8 -86 -8 -10 -7 -16 3
-22 12 -7 11 -10 -3 -16 -9 -3 -14 -10 -11 -15 3 -5 2 -9 -3 -8 -25 4 -40 -4
-56 -30 -13 -22 -22 -28 -40 -24 -15 3 -18 2 -9 -4 10 -7 8 -14 -8 -28 -21
-19 -17 -44 4 -26 6 5 17 7 23 3 7 -5 3 -11 -12 -18 -19 -10 -25 -9 -31 5 -13
29 -15 69 -4 76 16 10 13 65 -4 59 -8 -3 -17 -1 -20 4 -3 6 1 12 9 15 7 3 22
21 31 39 21 42 44 64 86 82 44 19 45 19 53 -6z m-350 -48 c14 -13 23 -26 20
-28 -3 -3 5 -17 17 -30 13 -14 18 -22 11 -18 -7 3 -14 -2 -18 -13 -10 -32 -61
-21 -100 21 -31 35 -36 54 -26 109 2 12 71 -17 96 -41z m105 20 c0 -5 -2 -10
-4 -10 -3 0 -8 5 -11 10 -3 6 -1 10 4 10 6 0 11 -4 11 -10z m100 -40 c0 -5 -3
-9 -7 -9 -5 1 -10 0 -13 -1 -3 -1 -16 -3 -29 -4 -22 -3 -23 -2 -6 11 22 15 55
17 55 3z m250 -61 c0 -6 -4 -7 -10 -4 -5 3 -10 11 -10 16 0 6 5 7 10 4 6 -3
10 -11 10 -16z m21 -12 c-8 -8 -11 -7 -11 4 0 20 13 34 18 19 3 -7 -1 -17 -7
-23z m-106 -27 c3 -6 -1 -7 -9 -4 -18 7 -21 14 -7 14 6 0 13 -4 16 -10z m-452
-45 c13 -18 14 -23 3 -19 -8 3 -17 1 -21 -5 -3 -7 2 -11 14 -11 12 0 21 -6 22
-12 0 -10 2 -10 6 0 2 6 9 12 14 12 14 0 11 -26 -6 -40 -8 -7 -12 -17 -8 -24
3 -6 2 -7 -3 -3 -5 5 -9 12 -9 15 0 4 -10 17 -23 30 -20 20 -21 26 -10 39 10
13 10 17 1 20 -7 3 -13 9 -13 14 0 16 15 9 33 -16z m248 -25 c5 0 7 -10 5 -22
-2 -13 -9 -22 -16 -20 -7 2 -17 -3 -22 -10 -6 -9 -7 -6 -3 9 3 12 1 24 -5 28
-6 3 -10 -3 -10 -15 0 -26 -23 -21 -29 6 -2 10 0 16 4 12 5 -4 14 0 21 10 12
15 15 15 24 2 8 -12 10 -10 11 10 1 17 3 19 6 8 2 -10 9 -18 14 -18z m151 18
c-9 -9 -15 -9 -24 0 -9 9 -7 12 12 12 19 0 21 -3 12 -12z m-32 -48 c0 -5 -5
-10 -11 -10 -5 0 -7 5 -4 10 3 6 8 10 11 10 2 0 4 -4 4 -10z m-300 -20 c0 -5
-5 -10 -11 -10 -5 0 -7 5 -4 10 3 6 8 10 11 10 2 0 4 -4 4 -10z m273 -15 c-3
-8 -11 -15 -19 -15 -17 0 -18 7 -1 24 15 17 28 11 20 -9z"/>
<path d="M2908 3655 c-5 -42 7 -67 15 -33 10 34 8 68 -2 68 -5 0 -11 -16 -13
-35z"/>
<path d="M1896 3647 c3 -10 9 -15 12 -12 3 3 0 11 -7 18 -10 9 -11 8 -5 -6z"/>
<path d="M1922 3600 c0 -14 2 -19 5 -12 2 6 2 18 0 25 -3 6 -5 1 -5 -13z"/>
<path d="M2905 3578 c-8 -27 -16 -93 -11 -87 7 7 25 99 19 99 -2 0 -5 -6 -8
-12z"/>
<path d="M2530 3560 c0 -5 5 -10 10 -10 6 0 10 5 10 10 0 6 -4 10 -10 10 -5 0
-10 -4 -10 -10z"/>
<path d="M2511 3471 c-9 -6 -10 -11 -2 -15 13 -8 31 1 31 15 0 11 -11 11 -29
0z"/>
<path d="M2938 3107 c29 -31 31 -81 8 -181 -21 -88 -62 -161 -139 -243 -184
-196 -468 -190 -677 16 -114 112 -164 254 -126 359 15 43 15 43 -7 37 -21 -7
-41 -16 -107 -51 -16 -8 -30 -21 -30 -28 0 -13 -63 -40 -93 -41 -10 0 -21 -5
-25 -11 -13 -20 -70 -44 -105 -44 -24 0 -47 -10 -73 -31 -72 -56 -149 -96
-203 -102 -53 -6 -70 -13 -241 -102 -58 -30 -109 -55 -113 -55 -11 0 -154
-123 -203 -176 -23 -24 -58 -76 -79 -116 -21 -40 -47 -85 -58 -100 -13 -17
-18 -35 -14 -49 4 -16 -3 -39 -23 -71 -22 -35 -30 -61 -30 -93 0 -42 -3 -46
-55 -85 -58 -43 -122 -119 -131 -157 -4 -13 -4 -39 -1 -56 7 -42 72 -210 104
-267 19 -36 25 -62 27 -125 2 -44 1 -75 -1 -68 -7 19 -34 4 -81 -43 -24 -24
-54 -47 -66 -50 -27 -6 -67 -56 -69 -84 -1 -11 -6 -20 -12 -20 -16 0 -26 -168
-11 -173 6 -2 9 -24 7 -50 -1 -26 2 -53 6 -60 4 -6 9 -20 10 -30 2 -10 12 -38
23 -62 19 -41 30 -90 33 -145 1 -14 5 -28 10 -31 4 -3 9 -21 10 -41 2 -20 8
-42 13 -50 6 -7 11 -24 12 -37 0 -13 6 -27 13 -31 8 -6 8 -9 -2 -13 -10 -4 -7
-8 9 -12 12 -4 23 -12 24 -19 0 -6 2 -15 2 -21 1 -5 7 -20 14 -31 6 -12 8 -24
5 -28 -3 -3 -1 -6 5 -6 7 0 12 -7 12 -16 0 -10 6 -14 14 -11 10 4 12 0 9 -14
-4 -14 0 -19 16 -19 11 0 21 -5 21 -11 0 -5 -4 -7 -10 -4 -6 3 -7 -1 -4 -9 3
-9 11 -14 17 -13 6 1 13 -9 15 -22 2 -13 10 -31 18 -39 8 -8 18 -27 21 -43 l5
-29 144 0 143 0 -38 83 c-54 119 -76 187 -106 327 -33 158 -72 275 -128 387
-64 128 -72 155 -57 209 12 41 19 49 84 86 114 66 354 317 446 466 25 42 37
52 58 52 35 0 53 12 66 44 7 16 15 23 22 18 9 -5 10 -46 3 -152 -11 -207 -11
-644 1 -1005 11 -314 26 -445 57 -491 l15 -24 1074 0 1074 0 0 23 c0 12 7 56
16 97 9 46 18 165 23 311 4 129 10 240 14 245 3 6 11 69 17 140 12 150 15 161
38 167 9 3 -1 5 -22 6 -21 0 -58 11 -81 22 -51 26 -65 69 -33 101 21 21 18 21
124 8 45 -5 95 -5 110 -1 l29 8 -25 10 c-14 6 -76 11 -138 12 -78 0 -121 5
-141 16 -52 26 -50 108 2 120 12 3 69 6 126 8 70 1 106 6 108 14 3 9 -27 11
-118 9 -106 -1 -125 1 -145 17 -18 14 -24 28 -24 57 0 61 23 70 184 70 115 0
135 2 140 16 10 26 1 28 -61 16 -32 -6 -88 -14 -126 -18 -82 -8 -107 7 -107
66 0 39 14 57 66 83 34 17 188 37 289 37 62 0 66 1 76 27 5 15 9 85 7 157 -3
127 -2 133 26 186 52 101 108 136 150 94 20 -19 20 -27 0 -66 -36 -70 -24
-200 27 -298 11 -19 19 -53 19 -76 0 -129 52 -251 136 -318 28 -22 66 -65 84
-94 31 -50 122 -142 141 -142 4 0 36 -25 71 -56 55 -49 130 -94 156 -94 5 0
21 -9 36 -21 14 -11 26 -18 26 -14 0 3 11 -2 25 -11 27 -17 47 -12 38 11 -3 8
0 15 7 15 10 0 10 3 0 15 -12 15 -129 62 -142 57 -5 -1 -8 2 -8 7 0 5 -15 15
-32 22 -18 7 -44 25 -57 39 -13 14 -21 19 -16 11 5 -10 4 -12 -3 -7 -7 4 -12
14 -12 22 0 8 4 12 10 9 6 -4 7 2 1 17 -6 16 -17 24 -37 25 -16 1 -23 0 -16
-3 15 -7 16 -34 1 -34 -20 0 -49 21 -49 35 0 8 7 18 16 23 13 7 10 9 -14 8
-16 0 -28 -4 -25 -8 2 -5 -1 -8 -6 -8 -6 0 -11 5 -11 10 0 6 -3 9 -7 8 -5 -2
-8 2 -8 7 0 6 3 9 8 7 4 -1 7 2 7 7 0 12 210 152 219 146 5 -2 20 6 35 20 27
25 27 25 9 56 -10 17 -25 44 -33 58 -8 15 -26 43 -40 61 -45 62 -159 283 -206
400 -71 174 -106 239 -230 427 -149 224 -198 268 -354 318 -30 10 -90 31 -133
47 -43 15 -88 28 -100 28 -12 0 -37 15 -57 34 -33 32 -201 116 -232 116 -7 0
-21 9 -31 20 -9 11 -24 20 -32 20 -9 0 -46 23 -82 50 -37 28 -78 53 -92 57
-14 3 -33 11 -41 18 -8 7 -26 16 -40 20 l-25 7 23 -25z m-195 -1335 c27 -47 9
-61 -19 -15 -13 21 -24 42 -24 46 0 18 26 -1 43 -31z m79 -22 c2 -41 -1 -60
-9 -60 -10 0 -24 106 -14 116 13 13 20 -3 23 -56z m321 -52 c8 -5 4 -8 -9 -8
-34 0 -46 60 -21 103 11 20 12 17 15 -33 2 -30 9 -58 15 -62z m-193 51 c0 -18
-18 -9 -23 12 -4 16 -3 18 9 8 8 -6 14 -15 14 -20z m54 -17 c1 -28 -3 -42 -11
-42 -9 0 -13 16 -13 46 0 59 22 55 24 -4z m64 1 c2 -32 -1 -43 -11 -43 -10 0
-12 9 -9 32 3 23 0 35 -14 45 -18 14 -18 14 6 11 22 -3 25 -9 28 -45z m132 43
c0 -3 -4 -8 -10 -11 -5 -3 -10 -1 -10 4 0 6 5 11 10 11 6 0 10 -2 10 -4z m60
-53 c0 -51 -24 -36 -28 17 -3 39 -2 42 12 31 9 -8 16 -29 16 -48z m-378 15 c2
-25 9 -34 28 -39 l25 -7 -27 -1 c-25 -1 -58 21 -58 39 0 16 12 40 20 40 5 0
10 -14 12 -32z m321 -14 c-3 -9 0 -20 8 -25 11 -7 9 -9 -8 -9 -28 0 -38 17
-23 35 17 20 31 19 23 -1z m112 -13 c7 -12 -12 -24 -25 -16 -11 7 -4 25 10 25
5 0 11 -4 15 -9z m1175 -591 c0 -5 -5 -10 -11 -10 -5 0 -7 5 -4 10 3 6 8 10
11 10 2 0 4 -4 4 -10z"/>
<path d="M3901 1825 c-1 -16 -10 -54 -20 -83 l-18 -54 24 7 c16 4 22 2 18 -5
-8 -13 45 -13 65 0 8 5 10 10 4 10 -7 0 -15 12 -19 27 -3 15 -15 38 -25 53
-10 14 -20 36 -23 50 -4 23 -4 22 -6 -5z"/>
<path d="M4035 1000 c-3 -5 -13 -10 -21 -10 -9 0 -22 -7 -31 -16 -11 -10 -19
-12 -26 -5 -7 7 -20 5 -40 -5 -16 -9 -26 -11 -23 -5 5 7 -9 11 -41 12 -26 1
-88 2 -138 4 l-90 2 60 -14 c130 -30 194 -37 235 -23 49 16 58 9 127 -94 27
-39 54 -77 61 -84 11 -12 16 -34 13 -54 0 -5 2 -8 7 -8 4 0 7 -12 8 -28 1 -41
76 -189 134 -263 80 -104 175 -162 321 -195 40 -9 90 -25 113 -35 85 -39 152
-16 174 59 12 38 8 72 -7 72 -4 0 -13 16 -21 35 -7 19 -16 32 -19 30 -2 -3
-15 5 -28 17 l-24 22 -6 -22 c-3 -12 -9 -22 -15 -22 -5 0 -4 9 2 21 7 11 8 24
4 27 -4 4 -9 1 -11 -5 -3 -9 -10 -10 -22 -3 -10 5 -21 6 -25 3 -13 -14 -5 11
15 43 11 19 25 34 31 34 5 0 2 7 -6 16 -9 8 -16 20 -16 25 0 6 -4 7 -10 4 -5
-3 -10 3 -10 14 0 14 -5 19 -14 15 -16 -6 -36 24 -29 44 3 6 -1 12 -7 12 -7 0
-9 8 -5 20 6 18 -2 24 -26 22 -3 -1 -4 14 -1 31 3 25 1 29 -7 17 -9 -13 -11
-12 -12 5 0 13 -7 5 -19 -22 -19 -42 -30 -55 -26 -30 1 6 7 22 14 34 15 27 15
36 0 27 -8 -5 -9 -2 -5 10 4 10 3 15 -3 11 -6 -3 -13 1 -17 11 -5 14 -8 13
-20 -7 -13 -24 -13 -24 -7 6 3 17 8 36 10 44 4 11 2 11 -11 1 -8 -7 -13 -16
-10 -20 3 -5 0 -12 -6 -16 -8 -5 -9 -3 -4 6 6 10 4 12 -8 7 -12 -4 -14 -2 -10
11 4 11 -6 6 -28 -13 -19 -16 -28 -23 -21 -15 6 8 12 21 12 30 -1 12 -2 12
-11 -2 -15 -26 -32 -22 -24 5 6 18 5 20 -6 10 -7 -7 -18 -13 -23 -13 -6 1 -1
9 12 20 13 11 18 21 12 25 -6 3 -7 12 -4 18 4 7 -6 1 -22 -13 -16 -14 -26 -21
-22 -16 9 11 -21 35 -44 36 -10 0 -18 5 -18 11 0 5 -4 7 -10 4 -5 -3 -10 -2
-10 4 0 5 -16 15 -35 21 -19 6 -33 16 -30 21 4 5 3 9 -2 9 -4 0 -39 7 -77 15
-64 13 -102 38 -90 57 3 5 3 8 0 8 -3 0 -8 -4 -11 -10z"/>
</g>
</svg>
