<svg xmlns="http://www.w3.org/2000/svg" width="258" height="54" viewBox="0 0 258 54"><path d="M59.57,5.34V47.65l5.7,3.43v1.56H42.47V51.08l5.7-3.43V7.91L29.67,41.09H27.49L8.13,8.07V47.65l5.69,3.43v1.56H.63V51.08l5.78-3.43V5.81L.63,1.9V.34H17.34l17,28.57L50.12.34H65.27V1.9Z"/><path d="M109.06,39.06l1.25.47c-3,9-9.76,14.13-18.89,14.13-12.1,0-21.78-8.43-21.78-20.53S79.24,12.6,91.18,12.6s19.67,7.88,19.67,20.53H81.58c.47,7.57,5.93,14.52,14.6,14.52C101.56,47.65,106.09,45,109.06,39.06ZM81.58,31.57h18.5c-.16-12.88-3-17.65-8.9-17.65C85.09,13.92,81.66,19.86,81.58,31.57Z"/><path d="M164.4,51.08v1.56H142.47V51.08l4.91-3.43V27.2c0-5.7-2.26-8.67-6.71-8.67-5.54,0-8.66,5.15-8.66,11.24V47.65l4.91,3.43v1.56H115V51.08l5.93-3.43v-29L115,15.17V13.61h17V24.7c1.64-7.18,5.85-12.1,13.81-12.1,7.73,0,12.65,4.6,12.65,14.36V47.65Z"/><path d="M195.23,42.18c-1.09,6.25-5,11.48-12.25,11.48-6.64,0-11.94-4.45-11.94-12.73V15.17h-5.39V13.61H171L180.64.89h1.48V13.61H194.3v1.56H182.12V41.4c0,3.83,2.19,6.4,5.39,6.4,3.43,0,5.3-2.34,6.32-6Z"/><path d="M241.52,47.73c-2,4.44-5.38,5.93-9.36,5.93-3.44,0-8.43-1.72-9.06-8.75h-.23c-1.1,4.22-4.45,8.75-12.26,8.75-7.49,0-12.33-4.61-12.33-11,0-7.49,5.85-11.24,14.52-11.24H223V20.56c0-3.51-2.5-6.4-6.79-6.4h-1.17L202.65,27.35h-1.72V15.64c7.1-2.26,11.87-3,15.22-3,11.32,0,17.72,4.21,17.72,14.2v18c0,2.65,1.41,4.45,3.44,4.45a4.45,4.45,0,0,0,3.51-2ZM223,39.06V32.58L217.4,33c-5.85.78-7.18,4.76-7.18,8.28,0,4.52,2.26,7,5.78,7C220.13,48.27,223,45,223,39.06Z"/><path d="M257.37,46.63a6.44,6.44,0,0,1-12.88,0,6.44,6.44,0,1,1,12.88,0Z" fill="#fff"/></svg>