<svg xmlns="http://www.w3.org/2000/svg" width="328" height="116" viewBox="0 0 328 116"><rect width="328" height="116" fill="none"/><path d="M126.39,36.49,105.48,80h7.31l5-10.57H137L141.74,80h7.42L129,36.49Zm1.21,12,6.66,14.8H120.67Z" fill="#038ac7"/><rect x="156.22" y="36.49" width="6.78" height="43.53" fill="#038ac7"/><path d="M198.55,57.36h18.56v1.43a28.92,28.92,0,0,1-1.18,8.68A18.24,18.24,0,0,1,212,74a20.58,20.58,0,0,1-15.9,6.89,22.22,22.22,0,0,1-16.15-6.66,21.47,21.47,0,0,1-6.72-15.9,21.46,21.46,0,0,1,6.84-16.07,24.15,24.15,0,0,1,26.47-4.59,28.63,28.63,0,0,1,8.59,6.75L210.29,49q-5.53-7.14-13.47-7.14a16.31,16.31,0,0,0-12,4.77A15.63,15.63,0,0,0,180,58.25a15.26,15.26,0,0,0,5.37,12.08,16.34,16.34,0,0,0,10.92,4.36,13.78,13.78,0,0,0,9.06-3.26,11.52,11.52,0,0,0,4.53-7.87H198.55Z" fill="#038ac7"/><path d="M89.34,97h148V19.47h-148ZM95.5,25.45H231.15v65.6H95.5Z" fill="#038ac7"/></svg>