<svg xmlns="http://www.w3.org/2000/svg" width="178" height="40" viewBox="0 0 178 40"><path d="M43.34,5.75V33.58l3.75,2.26v1h-15v-1l3.74-2.26V7.45L23.68,29.27H22.24L9.51,7.55v26l3.74,2.26v1H4.58v-1l3.8-2.26V6.06L4.58,3.5v-1h11l11.2,18.79L37.13,2.47h10v1Z"/><path d="M75.88,27.93l.83.31c-1.95,5.9-6.42,9.29-12.43,9.29C56.33,37.53,50,32,50,24s6.31-13.5,14.17-13.5S77.07,15.71,77.07,24H57.81c.31,5,3.91,9.55,9.6,9.55C71,33.58,73.93,31.83,75.88,27.93ZM57.81,23H70c-.1-8.47-2-11.6-5.85-11.6S57.87,15.3,57.81,23Z"/><path d="M112.28,35.84v1H97.86v-1l3.23-2.26V20.13c0-3.75-1.49-5.7-4.41-5.7-3.65,0-5.7,3.39-5.7,7.39V33.58l3.23,2.26v1H79.79v-1l3.9-2.26V14.48l-3.9-2.26v-1H91v7.29c1.08-4.73,3.85-8,9.08-8s8.32,3,8.32,9.44V33.58Z"/><path d="M132.56,30c-.72,4.1-3.29,7.54-8.06,7.54-4.36,0-7.85-2.92-7.85-8.37V12.22H113.1v-1h3.55L123,2.83h1V11.2h8v1h-8V29.47c0,2.52,1.44,4.21,3.55,4.21,2.26,0,3.49-1.54,4.16-3.95Z"/><path d="M163,33.63a6.14,6.14,0,0,1-6.16,3.9c-2.26,0-5.54-1.13-6-5.75h-.16c-.72,2.77-2.92,5.75-8.06,5.75-4.93,0-8.11-3-8.11-7.24,0-4.93,3.85-7.39,9.55-7.39h6.72V15.76a4.13,4.13,0,0,0-4.46-4.2h-.77l-8.16,8.67h-1.13v-7.7a34.27,34.27,0,0,1,10-2c7.44,0,11.65,2.77,11.65,9.34V31.73c0,1.75.92,2.93,2.26,2.93a2.93,2.93,0,0,0,2.31-1.34Zm-12.17-5.7V23.67l-3.69.26c-3.85.51-4.72,3.13-4.72,5.44,0,3,1.48,4.62,3.79,4.62C148.93,34,150.83,31.83,150.83,27.93Z"/><path d="M173.42,32.91a4.24,4.24,0,0,1-8.47,0,4.24,4.24,0,1,1,8.47,0Z" fill="#fff"/></svg>