<svg xmlns="http://www.w3.org/2000/svg" width="200" height="43" viewBox="0 0 200 43"><path d="M47.91,5.25V37l4.27,2.58v1.17H35.08V39.57L39.36,37V7.18L25.48,32.07H23.84L9.31,7.3V37l4.28,2.58v1.17H3.69V39.57L8,37V5.6L3.69,2.67V1.5H16.22L29,22.93,40.82,1.5H52.18V2.67Z" fill="#00e8f7"/><path d="M85,30.55l.93.35c-2.22,6.73-7.32,10.6-14.17,10.6-9.08,0-16.34-6.32-16.34-15.4s7.21-15.41,16.17-15.41S86.38,16.61,86.38,26.1h-22c.35,5.68,4.45,10.89,11,10.89C79.42,37,82.81,35,85,30.55ZM64.42,24.93H78.3c-.11-9.67-2.22-13.24-6.67-13.24S64.48,16.14,64.42,24.93Z" fill="#00e8f7"/><path d="M126.56,39.57v1.17H110.1V39.57L113.79,37V21.65c0-4.28-1.7-6.5-5-6.5-4.16,0-6.5,3.86-6.5,8.43V37L106,39.57v1.17H89.49V39.57L93.94,37V15.2l-4.45-2.57V11.46h12.77v8.31c1.23-5.39,4.39-9.08,10.36-9.08,5.8,0,9.49,3.46,9.49,10.78V37Z" fill="#00e8f7"/><path d="M149.69,32.89c-.82,4.69-3.74,8.61-9.19,8.61-5,0-9-3.34-9-9.55V12.63h-4V11.46h4l7.2-9.55h1.11v9.55H149v1.17h-9.14V32.31c0,2.87,1.64,4.8,4.05,4.8,2.57,0,4-1.76,4.74-4.51Z" fill="#00e8f7"/><path d="M184.42,37.05a7,7,0,0,1-7,4.45c-2.57,0-6.32-1.29-6.79-6.56h-.18c-.82,3.16-3.33,6.56-9.19,6.56-5.62,0-9.25-3.46-9.25-8.26,0-5.62,4.39-8.43,10.89-8.43h7.67V16.67a4.72,4.72,0,0,0-5.09-4.8h-.88l-9.31,9.89H154V13c5.33-1.7,8.9-2.29,11.42-2.29,8.49,0,13.29,3.17,13.29,10.66V34.88c0,2,1.06,3.34,2.58,3.34a3.33,3.33,0,0,0,2.63-1.52Zm-13.88-6.5V25.69l-4.22.29c-4.39.59-5.38,3.57-5.38,6.21,0,3.4,1.7,5.27,4.33,5.27C168.37,37.46,170.54,35,170.54,30.55Z" fill="#00e8f7"/><path d="M196.31,36.23a4.83,4.83,0,0,1-9.66,0,4.83,4.83,0,1,1,9.66,0Z" fill="#fff"/></svg>