<svg xmlns="http://www.w3.org/2000/svg" width="32" height="32" viewBox="0 0 32 32"><circle cx="16" cy="16" r="15" transform="translate(-3.18 4) rotate(-12.97)" fill="#3d6c72"/><path d="M21,12.28a4,4,0,0,1-1.28.38,2.35,2.35,0,0,0,1-1.32,4.38,4.38,0,0,1-1.41.58,2.12,2.12,0,0,0-1.62-.76,2.31,2.31,0,0,0-2.22,2.39,2.51,2.51,0,0,0,.06.55A6.18,6.18,0,0,1,11,11.6a2.51,2.51,0,0,0-.3,1.2,2.42,2.42,0,0,0,1,2,2.13,2.13,0,0,1-1-.3v0a2.35,2.35,0,0,0,1.78,2.34,2.33,2.33,0,0,1-.59.08,2,2,0,0,1-.42,0,2.24,2.24,0,0,0,2.08,1.65,4.22,4.22,0,0,1-2.76,1,3.08,3.08,0,0,1-.53,0,5.88,5.88,0,0,0,3.4,1.08c4.09,0,6.32-3.64,6.32-6.8,0-.1,0-.2,0-.3A4.91,4.91,0,0,0,21,12.28Z" fill="#00e8f7"/></svg>