<svg xmlns="http://www.w3.org/2000/svg" width="328" height="116" viewBox="0 0 328 116"><rect width="328" height="116" fill="none"/><path d="M81.75,101.36v6.24c0,2.36,1,3.36,2.46,3.36,1.56,0,2.56-1,2.56-3.36v-6.24h1.38v6.15c0,3.23-1.7,4.56-4,4.56s-3.79-1.23-3.79-4.5v-6.21Z" fill="#001689"/><path d="M90.62,106.38c0-.78,0-1.43-.06-2h1.22l.08,1.25h0a2.78,2.78,0,0,1,2.5-1.42c1,0,2.68.62,2.68,3.22v4.52H95.69v-4.36c0-1.22-.45-2.24-1.75-2.24a2,2,0,0,0-1.85,1.41,2,2,0,0,0-.09.64v4.55H90.62Z" fill="#001689"/><path d="M103.66,111.9l-.11-1h0a2.81,2.81,0,0,1-2.31,1.12,2.16,2.16,0,0,1-2.32-2.17c0-1.83,1.63-2.83,4.55-2.82v-.15a1.56,1.56,0,0,0-1.72-1.76,3.73,3.73,0,0,0-2,.57l-.31-.91a4.64,4.64,0,0,1,2.48-.67c2.32,0,2.88,1.58,2.88,3.1v2.83a11,11,0,0,0,.13,1.81Zm-.21-3.86c-1.5,0-3.2.23-3.2,1.7a1.22,1.22,0,0,0,1.3,1.32,1.89,1.89,0,0,0,1.83-1.27,1.68,1.68,0,0,0,.07-.44Z" fill="#001689"/><path d="M110.78,111.9v-6.52h-1.07v-1h1.07V104a3.61,3.61,0,0,1,.87-2.65,2.65,2.65,0,0,1,1.85-.7,3.16,3.16,0,0,1,1.17.22l-.18,1.06a2.17,2.17,0,0,0-.88-.17c-1.17,0-1.47,1-1.47,2.19v.41H114v1h-1.83v6.52Z" fill="#001689"/><path d="M119.56,111.9l-.11-1h0a2.83,2.83,0,0,1-2.32,1.12,2.15,2.15,0,0,1-2.31-2.17c0-1.83,1.62-2.83,4.55-2.82v-.15a1.56,1.56,0,0,0-1.72-1.76,3.7,3.7,0,0,0-2,.57l-.32-.91a4.7,4.7,0,0,1,2.49-.67c2.32,0,2.88,1.58,2.88,3.1v2.83a10,10,0,0,0,.13,1.81Zm-.21-3.86c-1.5,0-3.21.23-3.21,1.7a1.23,1.23,0,0,0,1.3,1.32,1.88,1.88,0,0,0,1.83-1.27,1.36,1.36,0,0,0,.08-.44Z" fill="#001689"/><path d="M123.06,106.38c0-.78,0-1.43-.06-2h1.2l.07,1.22h0a2.61,2.61,0,0,1,2.38-1.39,2.22,2.22,0,0,1,2.14,1.51h0a3,3,0,0,1,.84-1,2.55,2.55,0,0,1,1.67-.53c1,0,2.49.65,2.49,3.28v4.46h-1.34v-4.29c0-1.45-.54-2.33-1.65-2.33a1.77,1.77,0,0,0-1.62,1.26,2,2,0,0,0-.11.68v4.68H127.8v-4.54c0-1.2-.53-2.08-1.58-2.08a2.06,2.06,0,0,0-1.81,2v4.57h-1.35Z" fill="#001689"/><path d="M137.8,102.2a.82.82,0,0,1-.88.85.83.83,0,0,1-.83-.85.84.84,0,0,1,.87-.86A.82.82,0,0,1,137.8,102.2Zm-1.53,9.7v-7.57h1.37v7.57Z" fill="#001689"/><path d="M140.09,100.79h1.37V111.9h-1.37Z" fill="#001689"/><path d="M145.47,102.2a.86.86,0,0,1-1.71,0,.84.84,0,0,1,.86-.86A.82.82,0,0,1,145.47,102.2Zm-1.54,9.7v-7.57h1.38v7.57Z" fill="#001689"/><path d="M152,111.9l-.11-1h-.05a2.83,2.83,0,0,1-2.32,1.12,2.15,2.15,0,0,1-2.31-2.17c0-1.83,1.62-2.83,4.55-2.82v-.15a1.56,1.56,0,0,0-1.72-1.76,3.73,3.73,0,0,0-2,.57l-.31-.91a4.64,4.64,0,0,1,2.48-.67c2.32,0,2.88,1.58,2.88,3.1v2.83a10,10,0,0,0,.13,1.81Zm-.21-3.86c-1.5,0-3.21.23-3.21,1.7a1.23,1.23,0,0,0,1.3,1.32,1.88,1.88,0,0,0,1.83-1.27,1.36,1.36,0,0,0,.08-.44Z" fill="#001689"/><path d="M158.92,106.8c0-1,0-1.75-.06-2.47h1.24l.06,1.3h0a3,3,0,0,1,2.69-1.47c1.83,0,3.21,1.55,3.21,3.85,0,2.72-1.66,4.06-3.44,4.06a2.63,2.63,0,0,1-2.33-1.19h0V115h-1.37Zm1.37,2a3.2,3.2,0,0,0,.06.56,2.12,2.12,0,0,0,2.06,1.61c1.46,0,2.3-1.18,2.3-2.92,0-1.52-.79-2.82-2.25-2.82a2.19,2.19,0,0,0-2.08,1.71,2.05,2.05,0,0,0-.09.56Z" fill="#001689"/><path d="M172.18,111.9l-.11-1h0a2.83,2.83,0,0,1-2.32,1.12,2.15,2.15,0,0,1-2.31-2.17c0-1.83,1.63-2.83,4.55-2.82v-.15a1.56,1.56,0,0,0-1.72-1.76,3.73,3.73,0,0,0-2,.57l-.31-.91a4.64,4.64,0,0,1,2.48-.67c2.32,0,2.88,1.58,2.88,3.1v2.83a10,10,0,0,0,.13,1.81ZM172,108c-1.5,0-3.2.23-3.2,1.7a1.22,1.22,0,0,0,1.3,1.32,1.89,1.89,0,0,0,1.83-1.27,1.68,1.68,0,0,0,.07-.44Z" fill="#001689"/><path d="M175.68,106.69c0-.89,0-1.66-.06-2.36h1.2l.05,1.49h.06a2.28,2.28,0,0,1,2.1-1.66,1.51,1.51,0,0,1,.39,0v1.3a2.17,2.17,0,0,0-.47,0,1.91,1.91,0,0,0-1.84,1.76,4,4,0,0,0-.07.65v4h-1.36Z" fill="#001689"/><path d="M185.07,111.9l-.11-1h-.05a2.81,2.81,0,0,1-2.31,1.12,2.16,2.16,0,0,1-2.32-2.17c0-1.83,1.63-2.83,4.56-2.82v-.15a1.57,1.57,0,0,0-1.72-1.76,3.76,3.76,0,0,0-2,.57l-.31-.91a4.67,4.67,0,0,1,2.49-.67c2.31,0,2.88,1.58,2.88,3.1v2.83a11.06,11.06,0,0,0,.12,1.81Zm-.2-3.86c-1.5,0-3.21.23-3.21,1.7a1.23,1.23,0,0,0,1.3,1.32,1.89,1.89,0,0,0,1.83-1.27,1.36,1.36,0,0,0,.08-.44Z" fill="#001689"/><path d="M192.05,100.79h1.38V111.9h-1.38Z" fill="#001689"/><path d="M200.09,111.9l-.11-1h0a2.85,2.85,0,0,1-2.32,1.12,2.15,2.15,0,0,1-2.31-2.17c0-1.83,1.62-2.83,4.55-2.82v-.15a1.56,1.56,0,0,0-1.72-1.76,3.7,3.7,0,0,0-2,.57l-.32-.91a4.7,4.7,0,0,1,2.49-.67c2.32,0,2.88,1.58,2.88,3.1v2.83a11.06,11.06,0,0,0,.12,1.81Zm-.2-3.86c-1.5,0-3.21.23-3.21,1.7a1.23,1.23,0,0,0,1.3,1.32,1.88,1.88,0,0,0,1.83-1.27,1.36,1.36,0,0,0,.08-.44Z" fill="#001689"/><path d="M207.21,111.9v-6.52h-1.06v-1h1.06V104a3.61,3.61,0,0,1,.88-2.65,2.62,2.62,0,0,1,1.85-.7,3.2,3.2,0,0,1,1.17.22l-.19,1.06a2.1,2.1,0,0,0-.88-.17c-1.17,0-1.47,1-1.47,2.19v.41h1.83v1h-1.83v6.52Z" fill="#001689"/><path d="M216,111.9l-.11-1h0a2.81,2.81,0,0,1-2.31,1.12,2.16,2.16,0,0,1-2.32-2.17c0-1.83,1.63-2.83,4.56-2.82v-.15a1.57,1.57,0,0,0-1.73-1.76,3.75,3.75,0,0,0-2,.57l-.31-.91a4.67,4.67,0,0,1,2.49-.67c2.31,0,2.88,1.58,2.88,3.1v2.83a11.06,11.06,0,0,0,.12,1.81Zm-.2-3.86c-1.5,0-3.21.23-3.21,1.7a1.22,1.22,0,0,0,1.3,1.32,1.89,1.89,0,0,0,1.83-1.27,1.36,1.36,0,0,0,.08-.44Z" fill="#001689"/><path d="M219.5,106.38c0-.78,0-1.43-.07-2h1.21l.06,1.22h.05a2.6,2.6,0,0,1,2.38-1.39,2.23,2.23,0,0,1,2.14,1.51h0a3.06,3.06,0,0,1,.85-1,2.53,2.53,0,0,1,1.67-.53c1,0,2.49.65,2.49,3.28v4.46H229v-4.29c0-1.45-.53-2.33-1.64-2.33a1.79,1.79,0,0,0-1.63,1.26,2.25,2.25,0,0,0-.11.68v4.68h-1.34v-4.54c0-1.2-.53-2.08-1.58-2.08a1.89,1.89,0,0,0-1.71,1.38,1.85,1.85,0,0,0-.11.67v4.57H219.5Z" fill="#001689"/><path d="M234.24,102.2a.86.86,0,0,1-1.71,0,.84.84,0,0,1,.86-.86A.82.82,0,0,1,234.24,102.2Zm-1.54,9.7v-7.57h1.38v7.57Z" fill="#001689"/><path d="M236.52,100.79h1.38V111.9h-1.38Z" fill="#001689"/><path d="M241.9,102.2a.85.85,0,1,1-1.7,0,.84.84,0,0,1,.86-.86A.82.82,0,0,1,241.9,102.2Zm-1.53,9.7v-7.57h1.38v7.57Z" fill="#001689"/><path d="M248.38,111.9l-.11-1h-.05a2.81,2.81,0,0,1-2.31,1.12,2.16,2.16,0,0,1-2.32-2.17c0-1.83,1.63-2.83,4.56-2.82v-.15a1.57,1.57,0,0,0-1.72-1.76,3.76,3.76,0,0,0-2,.57l-.31-.91a4.67,4.67,0,0,1,2.49-.67c2.31,0,2.88,1.58,2.88,3.1v2.83a11.06,11.06,0,0,0,.12,1.81Zm-.2-3.86c-1.5,0-3.21.23-3.21,1.7a1.23,1.23,0,0,0,1.3,1.32,1.89,1.89,0,0,0,1.83-1.27,1.36,1.36,0,0,0,.08-.44Z" fill="#001689"/><path d="M18.84,75.94a5.24,5.24,0,0,0-.81-.6,9.59,9.59,0,0,0-1.41-.74A12.8,12.8,0,0,0,14.81,74a7.79,7.79,0,0,0-2-.25,4.45,4.45,0,0,0-2.67.66,2.2,2.2,0,0,0-.88,1.85,1.93,1.93,0,0,0,.33,1.15,2.89,2.89,0,0,0,1,.8,8.21,8.21,0,0,0,1.59.63c.64.19,1.38.38,2.21.59,1.09.3,2.08.61,3,1a7.86,7.86,0,0,1,2.26,1.25A5.2,5.2,0,0,1,21,83.43,5.92,5.92,0,0,1,21.54,86a6.4,6.4,0,0,1-.68,3.06A5.67,5.67,0,0,1,19,91.14a7.88,7.88,0,0,1-2.64,1.15,13.29,13.29,0,0,1-3.13.36,16.86,16.86,0,0,1-5-.75,15.65,15.65,0,0,1-4.4-2.14L5.83,86a5.89,5.89,0,0,0,1,.74,15.37,15.37,0,0,0,1.74.91,14.2,14.2,0,0,0,2.23.77,10.11,10.11,0,0,0,2.52.31c2.38,0,3.58-.76,3.58-2.29a1.87,1.87,0,0,0-.41-1.22,3.38,3.38,0,0,0-1.16-.88,11.26,11.26,0,0,0-1.82-.69L11.14,83a20.33,20.33,0,0,1-2.78-1,7.53,7.53,0,0,1-2-1.23,4.55,4.55,0,0,1-1.17-1.63,5.54,5.54,0,0,1-.4-2.22,6.9,6.9,0,0,1,.63-3,6,6,0,0,1,1.75-2.2,7.86,7.86,0,0,1,2.59-1.34A10.8,10.8,0,0,1,13,69.94a12.39,12.39,0,0,1,4.34.73,16.36,16.36,0,0,1,3.45,1.75Z" fill="#001689"/><path d="M31.87,92.71A9.14,9.14,0,0,1,28.29,92a8.14,8.14,0,0,1-4.48-4.54,8.88,8.88,0,0,1-.61-3.24A9.09,9.09,0,0,1,23.8,81a8.08,8.08,0,0,1,1.73-2.74,8.25,8.25,0,0,1,2.75-1.86,8.92,8.92,0,0,1,3.62-.7,8.79,8.79,0,0,1,3.6.7,8.11,8.11,0,0,1,2.7,1.85,7.74,7.74,0,0,1,1.7,2.7,9,9,0,0,1,.58,3.21c0,.27,0,.53,0,.78a4.46,4.46,0,0,1-.08.63H27.66a5.12,5.12,0,0,0,.47,1.73,4.32,4.32,0,0,0,1,1.28,4.25,4.25,0,0,0,1.35.82,4.37,4.37,0,0,0,1.57.28A4.81,4.81,0,0,0,34.4,89a3.32,3.32,0,0,0,1.53-1.62l3.61,1a7.31,7.31,0,0,1-2.91,3.09A9,9,0,0,1,31.87,92.71Zm4.28-9.92a4.42,4.42,0,0,0-1.37-3,4.17,4.17,0,0,0-2.94-1.12,4.24,4.24,0,0,0-1.59.3A4.17,4.17,0,0,0,28,81.12a4.52,4.52,0,0,0-.42,1.67Z" fill="#001689"/><path d="M49.34,92.49a6.79,6.79,0,0,1-3-.66A7.34,7.34,0,0,1,44,90a8.31,8.31,0,0,1-1.52-2.66,10.05,10.05,0,0,1,0-6.53,8.59,8.59,0,0,1,1.57-2.7,7.15,7.15,0,0,1,2.42-1.83,7.26,7.26,0,0,1,3.11-.66,6.37,6.37,0,0,1,3.36.87,7.13,7.13,0,0,1,2.39,2.31V75.94H59V91.61a7.48,7.48,0,0,1-.69,3.27,7.29,7.29,0,0,1-1.91,2.45,8.5,8.5,0,0,1-2.89,1.54,11.9,11.9,0,0,1-3.66.54,10.29,10.29,0,0,1-4.54-.9A9.26,9.26,0,0,1,42.18,96l2.29-2.23a6.6,6.6,0,0,0,2.37,1.82,7.19,7.19,0,0,0,3,.66A6.41,6.41,0,0,0,51.74,96a4.32,4.32,0,0,0,1.59-.83,3.83,3.83,0,0,0,1.08-1.44,5,5,0,0,0,.4-2.08V89.54a5.56,5.56,0,0,1-2.3,2.18A6.66,6.66,0,0,1,49.34,92.49Zm1.41-3.36a3.89,3.89,0,0,0,1.32-.22,4.32,4.32,0,0,0,1.17-.6,4.86,4.86,0,0,0,.94-.87,4.35,4.35,0,0,0,.63-1.07V82.44A5.09,5.09,0,0,0,53,80.12a4.2,4.2,0,0,0-2.53-.88,3.69,3.69,0,0,0-1.76.42,4.43,4.43,0,0,0-1.35,1.13,5.24,5.24,0,0,0-.86,1.62,6,6,0,0,0-.3,1.88,5.08,5.08,0,0,0,1.3,3.43,4.54,4.54,0,0,0,1.43,1A4.11,4.11,0,0,0,50.75,89.13Z" fill="#001689"/><path d="M67.13,92.71a4.66,4.66,0,0,1-3.86-1.63A7.57,7.57,0,0,1,62,86.24V75.94h4.21v9.39q0,3.8,2.73,3.8a4.24,4.24,0,0,0,2.37-.74,5.25,5.25,0,0,0,1.87-2.24V75.94h4.21V87.56a1.45,1.45,0,0,0,.24.94,1,1,0,0,0,.77.32V92.4a9.51,9.51,0,0,1-1.06.16l-.77,0a3.05,3.05,0,0,1-1.83-.52,2,2,0,0,1-.84-1.43l-.09-1.32a7.07,7.07,0,0,1-2.83,2.55A8.57,8.57,0,0,1,67.13,92.71Z" fill="#001689"/><path d="M90.33,79.58a8.34,8.34,0,0,0-3.43.74,4.35,4.35,0,0,0-2.17,2.12v10H80.52V75.94h3.87v3.52a7.23,7.23,0,0,1,1-1.53,7.9,7.9,0,0,1,1.28-1.18,6.27,6.27,0,0,1,1.4-.77,4,4,0,0,1,1.37-.26H90a1.84,1.84,0,0,1,.33,0Z" fill="#001689"/><path d="M99.31,92.71A9,9,0,0,1,95.7,92,8.1,8.1,0,0,1,93,90.15a8.31,8.31,0,0,1-1.71-2.71,9.13,9.13,0,0,1,0-6.51A8.46,8.46,0,0,1,93,78.21a8.22,8.22,0,0,1,2.72-1.86,9.63,9.63,0,0,1,7.21,0,8.13,8.13,0,0,1,2.7,1.86,8.3,8.3,0,0,1,1.71,2.72,9.13,9.13,0,0,1,0,6.51,8.26,8.26,0,0,1-1.69,2.71,8,8,0,0,1-2.7,1.87A9.09,9.09,0,0,1,99.31,92.71ZM95,84.2a5.69,5.69,0,0,0,.33,2,4.82,4.82,0,0,0,.91,1.56,4,4,0,0,0,1.37,1,4,4,0,0,0,1.69.36,4,4,0,0,0,1.7-.36,4.13,4.13,0,0,0,1.37-1,5,5,0,0,0,.91-1.57,5.89,5.89,0,0,0,.33-2,5.79,5.79,0,0,0-.33-2,5,5,0,0,0-.91-1.57,4.13,4.13,0,0,0-1.37-1,4,4,0,0,0-1.7-.36,3.84,3.84,0,0,0-1.69.37,4.22,4.22,0,0,0-1.37,1,4.77,4.77,0,0,0-.91,1.57A5.79,5.79,0,0,0,95,84.2Z" fill="#001689"/><path d="M116.53,92.71a12.73,12.73,0,0,1-4-.66,9.78,9.78,0,0,1-3.39-1.88l1.57-2.64a13.69,13.69,0,0,0,2.93,1.62,8.09,8.09,0,0,0,2.85.55,3.62,3.62,0,0,0,2-.47,1.53,1.53,0,0,0,.72-1.35,1.34,1.34,0,0,0-.85-1.29,18.85,18.85,0,0,0-2.76-1c-1.07-.29-2-.57-2.74-.84a7.15,7.15,0,0,1-1.82-.93,3.19,3.19,0,0,1-1-1.19,3.8,3.8,0,0,1-.32-1.62,5,5,0,0,1,.49-2.26,4.86,4.86,0,0,1,1.37-1.72,6.27,6.27,0,0,1,2-1.08,8.43,8.43,0,0,1,2.56-.38,10.94,10.94,0,0,1,3.48.54,8.47,8.47,0,0,1,3,1.72l-1.69,2.55a9.67,9.67,0,0,0-2.44-1.38,6.46,6.46,0,0,0-2.34-.44,3.32,3.32,0,0,0-1.79.44,1.52,1.52,0,0,0-.72,1.41,1.42,1.42,0,0,0,.17.72,1.61,1.61,0,0,0,.55.51,6.12,6.12,0,0,0,1,.42,15.73,15.73,0,0,0,1.53.42c1.13.3,2.09.59,2.9.88a7.92,7.92,0,0,1,2,1,3.63,3.63,0,0,1,1.13,1.3,4.07,4.07,0,0,1,.36,1.78,4.58,4.58,0,0,1-1.79,3.82A7.72,7.72,0,0,1,116.53,92.71Z" fill="#001689"/><path d="M138.57,92.71a7.49,7.49,0,0,1-3.14-.66A7.35,7.35,0,0,1,133,90.23a8.51,8.51,0,0,1-1.62-2.72,9.61,9.61,0,0,1-.58-3.34,9.94,9.94,0,0,1,.55-3.33,8.7,8.7,0,0,1,1.53-2.7,6.88,6.88,0,0,1,2.32-1.83,6.65,6.65,0,0,1,2.95-.66,6.33,6.33,0,0,1,5.56,3.18V69.46h4.21v18.1a1.6,1.6,0,0,0,.22.94,1,1,0,0,0,.76.32V92.4a9.24,9.24,0,0,1-1.79.22,2.93,2.93,0,0,1-1.86-.57,2.05,2.05,0,0,1-.81-1.47l-.1-1a6,6,0,0,1-2.46,2.37A7,7,0,0,1,138.57,92.71Zm1.1-3.58a4.16,4.16,0,0,0,1.23-.2,4.35,4.35,0,0,0,1.16-.58,5,5,0,0,0,1-.88,3.6,3.6,0,0,0,.64-1.1V82.44a4.51,4.51,0,0,0-.7-1.27,5.52,5.52,0,0,0-1-1,5.42,5.42,0,0,0-1.22-.67,3.47,3.47,0,0,0-1.28-.25,3.77,3.77,0,0,0-1.74.4,4.36,4.36,0,0,0-1.37,1.12,5.5,5.5,0,0,0-.88,1.62,5.66,5.66,0,0,0-.31,1.88,5.24,5.24,0,0,0,.34,1.92,4.93,4.93,0,0,0,.95,1.54,4.13,4.13,0,0,0,1.43,1A4.22,4.22,0,0,0,139.67,89.13Z" fill="#001689"/><path d="M158.94,92.71a9.14,9.14,0,0,1-3.58-.67,8.14,8.14,0,0,1-4.48-4.54,8.68,8.68,0,0,1-.61-3.24,9.09,9.09,0,0,1,.6-3.31,8.05,8.05,0,0,1,1.72-2.74,8.35,8.35,0,0,1,2.75-1.86,9,9,0,0,1,3.63-.7,8.79,8.79,0,0,1,3.6.7,8.11,8.11,0,0,1,2.7,1.85,7.89,7.89,0,0,1,1.7,2.7,9.21,9.21,0,0,1,.58,3.21c0,.27,0,.53,0,.78a2.69,2.69,0,0,1-.08.63H154.73a4.9,4.9,0,0,0,.47,1.73,4.16,4.16,0,0,0,1,1.28,4,4,0,0,0,1.35.82,4.37,4.37,0,0,0,1.57.28,4.81,4.81,0,0,0,2.37-.61A3.25,3.25,0,0,0,163,87.4l3.62,1a7.31,7.31,0,0,1-2.91,3.09A9,9,0,0,1,158.94,92.71Zm4.27-9.92a4.36,4.36,0,0,0-1.36-3,4.4,4.4,0,0,0-4.53-.82,4.17,4.17,0,0,0-2.23,2.12,4.52,4.52,0,0,0-.42,1.67Z" fill="#001689"/><path d="M169.94,69.46h4.21V87.12a2,2,0,0,0,.44,1.41,1.56,1.56,0,0,0,1.25.51,3,3,0,0,0,.84-.13,5.84,5.84,0,0,0,.86-.31l.56,3.2a8.29,8.29,0,0,1-2,.63,10.63,10.63,0,0,1-2,.22A4.21,4.21,0,0,1,171,91.6a4,4,0,0,1-1.08-3Z" fill="#001689"/><path d="M185.75,92.4V70.09h9.46a6.33,6.33,0,0,1,2.84.65,7.4,7.4,0,0,1,2.25,1.69,8.15,8.15,0,0,1,1.47,2.39,7.13,7.13,0,0,1,.54,2.69,7.66,7.66,0,0,1-.51,2.75,7.46,7.46,0,0,1-1.41,2.37,6.84,6.84,0,0,1-2.2,1.66,6.35,6.35,0,0,1-2.83.63h-5.27V92.4Zm4.34-11.28h5a2.49,2.49,0,0,0,2-1,4.06,4.06,0,0,0,.8-2.64,4.54,4.54,0,0,0-.25-1.53,3.71,3.71,0,0,0-.66-1.14,2.56,2.56,0,0,0-1-.71,2.79,2.79,0,0,0-1.12-.24h-4.83Z" fill="#001689"/><path d="M204.76,73.64V69.46H209v4.18Zm0,18.76V75.94H209V92.4Z" fill="#001689"/><path d="M211,84.17a9.16,9.16,0,0,1,.59-3.27,8,8,0,0,1,1.73-2.7,8.45,8.45,0,0,1,2.73-1.85,8.92,8.92,0,0,1,3.62-.7,8.62,8.62,0,0,1,4.6,1.17,7.4,7.4,0,0,1,2.84,3L223,81.12a3.74,3.74,0,0,0-1.42-1.4,4,4,0,0,0-1.94-.48,4,4,0,0,0-1.7.36,4.21,4.21,0,0,0-1.37,1,4.79,4.79,0,0,0-.91,1.56,5.89,5.89,0,0,0-.33,2,5.66,5.66,0,0,0,.35,2,5.16,5.16,0,0,0,.92,1.57,4.13,4.13,0,0,0,1.37,1,4,4,0,0,0,1.67.36,4.12,4.12,0,0,0,2.09-.56,3.21,3.21,0,0,0,1.33-1.39l4.12,1.26a7,7,0,0,1-2.8,3.08,8.75,8.75,0,0,1-4.68,1.19,9,9,0,0,1-3.61-.69,8.16,8.16,0,0,1-4.48-4.6A8.77,8.77,0,0,1,211,84.17Z" fill="#001689"/><path d="M244.64,92.4h-4.21V83.16a4.59,4.59,0,0,0-.73-2.87,2.43,2.43,0,0,0-2-.93,3.34,3.34,0,0,0-1.19.25,4.92,4.92,0,0,0-1.2.71,5.9,5.9,0,0,0-1,1.08,4,4,0,0,0-.69,1.39V92.4h-4.21V69.46h4.21V79A6.32,6.32,0,0,1,236,76.52a7,7,0,0,1,3.44-.87,5.49,5.49,0,0,1,2.61.55,4.25,4.25,0,0,1,1.57,1.46,6,6,0,0,1,.79,2.08,13.36,13.36,0,0,1,.22,2.39Z" fill="#001689"/><path d="M247.6,73.64V69.46h4.21v4.18Zm0,18.76V75.94h4.21V92.4Z" fill="#001689"/><path d="M270.19,92.4H266V83.16a4.82,4.82,0,0,0-.69-2.89,2.28,2.28,0,0,0-1.91-.91,3.78,3.78,0,0,0-1.29.25,4.8,4.8,0,0,0-1.24.71,5.72,5.72,0,0,0-1.06,1.08,4.41,4.41,0,0,0-.69,1.39V92.4h-4.21V75.94h3.8v3a6.33,6.33,0,0,1,2.64-2.45,8.57,8.57,0,0,1,3.9-.88,4.91,4.91,0,0,1,2.51.57,4.13,4.13,0,0,1,1.51,1.48,6.14,6.14,0,0,1,.74,2.07,13.19,13.19,0,0,1,.2,2.36Z" fill="#001689"/><path d="M272.4,84.17A9.16,9.16,0,0,1,273,80.9a8,8,0,0,1,1.73-2.7,8.45,8.45,0,0,1,2.73-1.85,8.92,8.92,0,0,1,3.62-.7,8.62,8.62,0,0,1,4.6,1.17,7.4,7.4,0,0,1,2.84,3l-4.11,1.26a3.74,3.74,0,0,0-1.42-1.4,4,4,0,0,0-1.94-.48,4,4,0,0,0-1.7.36,4.21,4.21,0,0,0-1.37,1,4.62,4.62,0,0,0-.91,1.56,5.89,5.89,0,0,0-.33,2,5.66,5.66,0,0,0,.35,2,5.16,5.16,0,0,0,.92,1.57,4.13,4.13,0,0,0,1.37,1,4,4,0,0,0,1.67.36,4.12,4.12,0,0,0,2.09-.56,3.21,3.21,0,0,0,1.33-1.39l4.12,1.26a7,7,0,0,1-2.8,3.08,8.75,8.75,0,0,1-4.68,1.19,9,9,0,0,1-3.61-.69,8.16,8.16,0,0,1-4.48-4.6A8.77,8.77,0,0,1,272.4,84.17Z" fill="#001689"/><path d="M306,92.4h-4.21V83.16a4.66,4.66,0,0,0-.73-2.87,2.43,2.43,0,0,0-2-.93,3.34,3.34,0,0,0-1.19.25,4.92,4.92,0,0,0-1.2.71,5.9,5.9,0,0,0-1,1.08,4,4,0,0,0-.69,1.39V92.4h-4.21V69.46h4.21V79a6.32,6.32,0,0,1,2.46-2.46,7,7,0,0,1,3.44-.87,5.49,5.49,0,0,1,2.61.55A4.25,4.25,0,0,1,305,77.66a6,6,0,0,1,.79,2.08,13.36,13.36,0,0,1,.22,2.39Z" fill="#001689"/><path d="M313.47,92.71a6.26,6.26,0,0,1-2.23-.39,5.34,5.34,0,0,1-1.79-1.1,5.09,5.09,0,0,1-1.18-1.65,5,5,0,0,1-.42-2.07,4.61,4.61,0,0,1,.51-2.15,5,5,0,0,1,1.45-1.68A6.92,6.92,0,0,1,312,82.58a9.78,9.78,0,0,1,2.83-.39,11.78,11.78,0,0,1,2.15.19,8.28,8.28,0,0,1,1.87.53V82a3.31,3.31,0,0,0-.92-2.51,3.85,3.85,0,0,0-2.75-.88,7.18,7.18,0,0,0-2.58.47A11.64,11.64,0,0,0,310,80.43l-1.28-2.67a12.15,12.15,0,0,1,6.85-2.11,8,8,0,0,1,5.51,1.75,6.37,6.37,0,0,1,2,5v5.12a1.45,1.45,0,0,0,.24.94,1,1,0,0,0,.77.32V92.4a9.12,9.12,0,0,1-1.86.22,2.77,2.77,0,0,1-1.83-.54,2.24,2.24,0,0,1-.8-1.41l-.1-.91a7.25,7.25,0,0,1-2.67,2.2A7.72,7.72,0,0,1,313.47,92.71Zm1.19-3.08a5.54,5.54,0,0,0,2-.37,3.6,3.6,0,0,0,1.49-1,1.5,1.5,0,0,0,.69-1.19V85.17a9.44,9.44,0,0,0-1.63-.45,8.48,8.48,0,0,0-1.7-.18,4.51,4.51,0,0,0-2.67.74,2.23,2.23,0,0,0-1,1.87,2.27,2.27,0,0,0,.81,1.78A3,3,0,0,0,314.66,89.63Z" fill="#001689"/><path d="M139.07,23.6,159.56,3.11a7.29,7.29,0,0,1,10.25,0L173.66,7,142.93,37.7l-3.86-3.86A7.27,7.27,0,0,1,139.07,23.6Zm51.22,10.24L169.81,54.33a7.27,7.27,0,0,1-10.25,0l-3.86-3.85,23.06-23.06-2.2-2.19-.33-.34-.34.34-28,28-7.71-7.71,31.37-31.38a6.51,6.51,0,0,1,9.22,0l9.49,9.49A7.25,7.25,0,0,1,190.29,33.84Z" fill="#001689"/></svg>