<svg xmlns="http://www.w3.org/2000/svg" width="32" height="32" viewBox="0 0 32 32"><circle cx="16" cy="16" r="15" transform="translate(-2.33 2.73) rotate(-9.09)" fill="#3d6c72"/><path d="M18.75,10.84H12.56a2,2,0,0,0-2,1.95V19a2,2,0,0,0,2,1.95h6.19A2,2,0,0,0,20.7,19V12.79A2,2,0,0,0,18.75,10.84ZM19.31,12h.22v1.71h-1.7V12Zm-5.1,2.85a1.78,1.78,0,1,1-.33,1A1.77,1.77,0,0,1,14.21,14.85ZM19.72,19a1,1,0,0,1-1,1H12.56a1,1,0,0,1-1-1V14.85H13.1a2.58,2.58,0,0,0-.21,1,2.76,2.76,0,1,0,5.32-1h1.51Z" fill="#00e8f7"/></svg>