<svg xmlns="http://www.w3.org/2000/svg" width="328" height="116" viewBox="0 0 328 116"><rect width="328" height="116" fill="none"/><polygon points="27.81 88.75 28.94 88.75 30.36 93 31.78 88.75 32.91 88.75 33.93 94.85 32.81 94.85 32.16 91 30.86 94.85 29.84 94.85 28.56 91 27.89 94.85 26.76 94.85 27.81 88.75" fill="#002e6d"/><polygon points="43.98 88.75 47.31 88.75 47.31 89.89 45.13 89.89 45.13 90.99 47.31 90.99 47.31 92.11 45.13 92.11 45.13 93.71 47.31 93.71 47.31 94.85 43.98 94.85 43.98 88.75" fill="#002e6d"/><path d="M57.51,88.76h1.38a4.54,4.54,0,0,1,2,.32,2.54,2.54,0,0,1,1.06,1.07,3.46,3.46,0,0,1,.42,1.73,3.58,3.58,0,0,1-.23,1.3,2.71,2.71,0,0,1-.65,1,2.25,2.25,0,0,1-.89.54,6.28,6.28,0,0,1-1.66.15h-1.4Zm1.16,1.11v3.85h.53a2.59,2.59,0,0,0,1.16-.19,1.33,1.33,0,0,0,.58-.61,2.27,2.27,0,0,0,.23-1.06,2,2,0,0,0-.54-1.51,2.19,2.19,0,0,0-1.57-.48Z" fill="#002e6d"/><rect x="72.49" y="88.75" width="1.15" height="6.09" fill="#002e6d"/><path d="M89.66,89.82l-.81.78A2.49,2.49,0,0,0,87,89.72a2,2,0,0,0-2.07,2.07,2.11,2.11,0,0,0,.27,1.08,1.84,1.84,0,0,0,.74.75,2.22,2.22,0,0,0,1.08.27,2.1,2.1,0,0,0,.92-.19,3.38,3.38,0,0,0,.92-.69l.79.82a4.23,4.23,0,0,1-1.28.92A3.45,3.45,0,0,1,87,95a3.15,3.15,0,0,1-2.32-.9,3.1,3.1,0,0,1-.91-2.31,3.2,3.2,0,0,1,.41-1.62A3.16,3.16,0,0,1,85.35,89,3.34,3.34,0,0,1,87,88.6a3.48,3.48,0,0,1,1.45.32,3.33,3.33,0,0,1,1.2.9" fill="#002e6d"/><rect x="99.72" y="88.75" width="1.15" height="6.09" fill="#002e6d"/><polygon points="111.3 88.75 112.41 88.75 115.02 92.76 115.02 88.75 116.18 88.75 116.18 94.85 115.06 94.85 112.45 90.85 112.45 94.85 111.3 94.85 111.3 88.75" fill="#002e6d"/><path d="M128.55,88.75h1.17l2.35,6.1h-1.21l-.47-1.26H127.9l-.5,1.26h-1.2Zm.59,1.62-.81,2.09H130Z" fill="#002e6d"/><path d="M153.57,88.75h1.24a4,4,0,0,1,1.43.19,1.41,1.41,0,0,1,.7.6,1.81,1.81,0,0,1,.26,1,1.66,1.66,0,0,1-.34,1.06,1.72,1.72,0,0,1-.9.59,5.4,5.4,0,0,1-1.23.1v2.58h-1.16Zm1.16,2.38h.37a2.09,2.09,0,0,0,.61-.06.6.6,0,0,0,.27-.2.65.65,0,0,0,.09-.35.57.57,0,0,0-.27-.52,1.75,1.75,0,0,0-.74-.11h-.33Z" fill="#002e6d"/><path d="M167.53,88.75h1.23a4.11,4.11,0,0,1,1.44.18,1.46,1.46,0,0,1,.68.6,1.79,1.79,0,0,1,.27,1A1.58,1.58,0,0,1,170,92.14l1.44,2.71h-1.27l-1.37-2.58h-.1v2.58h-1.16Zm1.16,2.38h.36a1.39,1.39,0,0,0,.76-.14.55.55,0,0,0,.21-.48.58.58,0,0,0-.1-.35.54.54,0,0,0-.28-.21,2.21,2.21,0,0,0-.63-.06h-.32Z" fill="#002e6d"/><polygon points="181.5 88.75 184.82 88.75 184.82 89.89 182.65 89.89 182.65 90.99 184.82 90.99 184.82 92.11 182.65 92.11 182.65 93.71 184.82 93.71 184.82 94.85 181.5 94.85 181.5 88.75" fill="#002e6d"/><path d="M195,88.75h1.23a4.1,4.1,0,0,1,1.44.19,1.39,1.39,0,0,1,.69.6,1.81,1.81,0,0,1,.26,1,1.66,1.66,0,0,1-.33,1.06,1.79,1.79,0,0,1-.91.59,5.29,5.29,0,0,1-1.22.1v2.58H195Zm1.16,2.38h.37a2,2,0,0,0,.6-.06.55.55,0,0,0,.27-.2.65.65,0,0,0,.1-.35.56.56,0,0,0-.28-.52,1.72,1.72,0,0,0-.73-.11h-.33Z" fill="#002e6d"/><path d="M210.75,88.75h1.18l2.34,6.1h-1.2l-.48-1.26H210.1l-.49,1.26H208.4Zm.6,1.62-.82,2.09h1.63Z" fill="#002e6d"/><path d="M229.92,89.75l-.82.81a2.41,2.41,0,0,0-1.81-.82,2,2,0,0,0-1.5.59,1.94,1.94,0,0,0-.61,1.45,2,2,0,0,0,.63,1.5,2.13,2.13,0,0,0,1.55.61,1.93,1.93,0,0,0,1-.25,1.81,1.81,0,0,0,.66-.79h-1.76V91.76h3.06V92a3,3,0,0,1-.41,1.52,2.9,2.9,0,0,1-1.08,1.09,3.06,3.06,0,0,1-1.54.38,3.46,3.46,0,0,1-1.69-.41,3,3,0,0,1-1.18-1.18,3.22,3.22,0,0,1-.43-1.64,3,3,0,0,1,.8-2.1,3.14,3.14,0,0,1,2.47-1.07,3.83,3.83,0,0,1,1.48.29,3.63,3.63,0,0,1,1.15.86" fill="#002e6d"/><path d="M242.39,88.75h1.18l2.35,6.1h-1.21l-.48-1.26h-2.48l-.5,1.26h-1.2Zm.6,1.62-.82,2.09h1.63Z" fill="#002e6d"/><path d="M255.94,88.76h1.37a4.59,4.59,0,0,1,2,.32,2.66,2.66,0,0,1,1.06,1.07,3.46,3.46,0,0,1,.42,1.73,3.38,3.38,0,0,1-.24,1.3,2.69,2.69,0,0,1-.64,1,2.32,2.32,0,0,1-.89.54,6.42,6.42,0,0,1-1.67.15h-1.39Zm1.15,1.11v3.85h.54a2.54,2.54,0,0,0,1.15-.19,1.39,1.39,0,0,0,.59-.61,2.28,2.28,0,0,0,.22-1.06,2,2,0,0,0-.54-1.51,2.17,2.17,0,0,0-1.57-.48Z" fill="#002e6d"/><path d="M272.85,88.75H274l2.34,6.1h-1.2l-.48-1.26H272.2l-.49,1.26H270.5Zm.6,1.62-.82,2.09h1.63Z" fill="#002e6d"/><path d="M59.55,60.29l-1.82.92A20.34,20.34,0,0,0,46,58q-7.53,0-12.2,3.26a9.55,9.55,0,0,0,0,16.24Q38.41,80.72,46,80.73A21.79,21.79,0,0,0,58.15,77l1.27,1.42A25.67,25.67,0,0,1,46,82.22q-8.62,0-14-3.64t-5.26-9.23c0-3.73,1.78-6.79,5.34-9.21s8.19-3.61,13.9-3.61a23.81,23.81,0,0,1,13.56,3.76" fill="#002e6d"/><path d="M98.84,69.35a10.45,10.45,0,0,1-5,9.42,23.36,23.36,0,0,1-12.8,3.45q-8.19,0-13.58-3.75-4.29-3-4.28-9.12t4.33-9.13q5.34-3.69,13.53-3.69t13.5,3.75q4.28,3,4.27,9.07m-2.46,0c0-3.69-1.16-6.36-3.49-8Q88.23,58,81.07,58T69.19,61.26q-3.51,2.51-3.51,8.05t3.51,8.07q4.66,3.34,11.88,3.35t11.82-3.37q3.49-2.52,3.49-8" fill="#002e6d"/><path d="M129.86,79.63c0,1.5-1.05,2.24-3.16,2.24a4.12,4.12,0,0,1-3.45-1.71L107.1,58.52a.92.92,0,0,0-.76-.36c-.5,0-.75.21-.75.64v23h-2.45V59c0-1.49,1.06-2.23,3.16-2.23a4,4,0,0,1,3.43,1.7l16.21,21.61a.87.87,0,0,0,.72.36c.51,0,.76-.2.76-.6V57h2.44Z" fill="#002e6d"/><path d="M153.58,58.37H137.32c-1.45.13-2.17.64-2.17,1.51v8.77h15.47V70H135.15V81.79h-2.38V59.89a2.43,2.43,0,0,1,1.33-2.15,6.57,6.57,0,0,1,3.43-.8h16.05Z" fill="#002e6d"/><rect x="155.41" y="56.94" width="2.38" height="24.84" fill="#002e6d"/><path d="M187.39,81.78H185V69.43h-21.9V81.78h-2.38V65.72a7.91,7.91,0,0,1,3.15-6.54c2.24-1.77,6.15-2.65,10.27-2.65s7.8.9,10.06,2.69a7.86,7.86,0,0,1,3.17,6.5ZM185,68.06v-1.8c0-5.54-4-8.31-10.86-8.31s-11,2.77-11,8.31v1.8Z" fill="#002e6d"/><path d="M223.27,81.77h-2.38V58.61c0-.37-.2-.55-.61-.55s-.56.2-.75.6L210,79.58a3.3,3.3,0,0,1-6.25,0l-9.55-20.92c-.18-.4-.43-.6-.74-.6s-.6.18-.6.55V81.82h-2.37V58.69c0-1.3,1-1.95,2.95-1.95a3,3,0,0,1,3.06,1.66l9.72,21.28c.17.39.39.58.65.58s.45-.19.62-.56l9.76-21.3a3.11,3.11,0,0,1,3.14-1.66c1.93,0,2.9.64,2.9,1.94Z" fill="#009ade"/><path d="M247.76,81.78h-16a6.41,6.41,0,0,1-3.39-.83,2.42,2.42,0,0,1-1.39-2.11v-19h0a2.42,2.42,0,0,1,1.32-2.15,6.57,6.57,0,0,1,3.43-.8h16v1.43H231.47c-1.44.13-2.16.64-2.16,1.51v8.77h15.53V70H229.31v8.83c0,.87.72,1.37,2.16,1.51h16.29Z" fill="#009ade"/><path d="M276.49,69.16A11.18,11.18,0,0,1,272.7,78q-4.26,3.77-12.41,3.76H254.4a6.89,6.89,0,0,1-3.05-.67,2.56,2.56,0,0,1-1.73-2.28V59.27h0A2.43,2.43,0,0,1,251,57.12a6.62,6.62,0,0,1,3.43-.8l5,0q8,0,12.76,3.89a11.15,11.15,0,0,1,4.31,9m-2.5,0a10,10,0,0,0-3.58-7.91q-4-3.47-11.12-3.47h-5.13c-1.44.14-2.16.65-2.16,1.51V78.82c0,.87.72,1.37,2.16,1.51h6q7.17,0,10.74-3.42A10.21,10.21,0,0,0,274,69.12" fill="#009ade"/><path d="M277.32,45.27s-4,13.58,9.51,21c0,0,3.49-15.29-9.51-21" fill="#8dc6e8"/><path d="M280.35,42s4-13.58-9.52-21c0,0-3.48,15.29,9.52,21" fill="#005da5"/><path d="M301.25,35.49s-13.63-3.8-20.91,9.78c0,0,15.33,3.29,20.91-9.78" fill="#009ade"/><path d="M256.39,51.74s13.66,3.87,20.94-9.71c0,0-15.36-3.37-20.94,9.71" fill="#002e6d"/><path d="M264.5,37.05a3.07,3.07,0,0,1-4.31.07,3,3,0,0,1-.92-2.15,3,3,0,0,1,.86-2.16,2.92,2.92,0,0,1,2.13-.92,3,3,0,0,1,2.24,5.16m-4.07-3.95A2.55,2.55,0,0,0,259.7,35a2.59,2.59,0,0,0,.78,1.85,2.55,2.55,0,0,0,1.88.74,2.61,2.61,0,0,0,2.56-2.68,2.61,2.61,0,0,0-2.65-2.58,2.56,2.56,0,0,0-1.84.8m1.79.15a2.47,2.47,0,0,1,.92.1.85.85,0,0,1,.53.84.73.73,0,0,1-.32.66,1.21,1.21,0,0,1-.48.17.84.84,0,0,1,.58.32,1.06,1.06,0,0,1,.2.51v.24a2.35,2.35,0,0,0,0,.26,1.09,1.09,0,0,0,0,.17l0,0h-.55a0,0,0,0,0,0,0s0,0,0,0v-.38a.81.81,0,0,0-.33-.75,1.43,1.43,0,0,0-.65-.1h-.46l0,1.31h-.59l-.05-3.34Zm.64.51a1.43,1.43,0,0,0-.71-.11h-.5l0,1.21h.53a1.51,1.51,0,0,0,.56-.09.52.52,0,0,0,.34-.53.5.5,0,0,0-.24-.48" fill="#00539f"/></svg>