<svg xmlns="http://www.w3.org/2000/svg" width="306" height="58" viewBox="0 0 306 58"><path d="M174.73,10.87c-7.6-.95-14.93-6.64-18-9.3a2.29,2.29,0,0,0-3,0c-3.06,2.66-10.38,8.35-18,9.3a2.32,2.32,0,0,0-2.06,2.39c.93,23.12,16.14,33.27,20.42,35.68a2.29,2.29,0,0,0,2.24,0c4.28-2.41,19.49-12.56,20.42-35.68A2.32,2.32,0,0,0,174.73,10.87Z" fill="#003a42"/><path d="M156.9,26.49l10.88-13.14a.3.3,0,0,0-.42-.43L154.14,23.7a2,2,0,0,0,2.76,2.79Z" fill="#00e8f7"/><path d="M145.1,26.1h-3.28a.92.92,0,0,1,0-1.84h3.28a.92.92,0,0,1,0,1.84Z" fill="#00e7f6"/><path d="M170.36,26.1h-3.28a.92.92,0,1,1,0-1.84h3.28a.92.92,0,1,1,0,1.84Z" fill="#00e7f6"/><path d="M148.32,18.33a.91.91,0,0,1-.65-.27l-2.32-2.32a.92.92,0,0,1,1.3-1.3L149,16.76a.92.92,0,0,1-.65,1.57Z" fill="#00e7f6"/><path d="M156.09,15.11a.92.92,0,0,1-.92-.92V10.91a.92.92,0,1,1,1.84,0v3.28A.92.92,0,0,1,156.09,15.11Z" fill="#00e7f6"/><path d="M190.15,8.49a6.31,6.31,0,0,1,2,.29,4.35,4.35,0,0,1,1.47.82,3.37,3.37,0,0,1,.92,1.26,4.27,4.27,0,0,1-.57,4.23,5.31,5.31,0,0,1-2.35,1.63l3,5.11h-3l-2.81-4.71h-1.92L186,21.83h-2.73l2.35-13.34ZM188,10.89l-.67,3.83h2.43a2.39,2.39,0,0,0,1.69-.56,1.9,1.9,0,0,0,.59-1.47,1.78,1.78,0,0,0-.47-1.32,2,2,0,0,0-1.45-.48Z" fill="#003a42"/><path d="M207.15,11H200.9l-.48,2.71H205L204.6,16H200l-.58,3.37h6.48l-.42,2.47h-9.22L198.6,8.49h9Z" fill="#003a42"/><path d="M215.6,8.25a6.37,6.37,0,0,1,3.52.95,5.86,5.86,0,0,1,2.24,2.64l-2.22,1.34a4.41,4.41,0,0,0-1.46-1.78,3.82,3.82,0,0,0-2.24-.63,4.51,4.51,0,0,0-1.86.37,4.31,4.31,0,0,0-1.47,1,4.74,4.74,0,0,0-1,1.49,5,5,0,0,0-.35,1.87,4.53,4.53,0,0,0,.28,1.65,3.77,3.77,0,0,0,.81,1.28,3.62,3.62,0,0,0,1.26.82,4.3,4.3,0,0,0,1.63.3A4.38,4.38,0,0,0,217,19a5.78,5.78,0,0,0,1.74-1.52L220.61,19A7.36,7.36,0,0,1,218,21.28a7.49,7.49,0,0,1-3.43.79,7.12,7.12,0,0,1-2.66-.48,6.21,6.21,0,0,1-3.45-3.4,6.68,6.68,0,0,1-.48-2.57,7.09,7.09,0,0,1,.6-2.89,7.48,7.48,0,0,1,1.64-2.34,7.83,7.83,0,0,1,2.42-1.57A7.69,7.69,0,0,1,215.6,8.25Z" fill="#003a42"/><path d="M233.47,21.83h-2.83l-.46-1.74H224.8l-1.05,1.74h-3.1L229,8.25h.89Zm-7.32-4h3.46l-1-4.39Z" fill="#003a42"/><path d="M242.09,8.49a6.31,6.31,0,0,1,2,.29,4.35,4.35,0,0,1,1.47.82,3.37,3.37,0,0,1,.92,1.26,4.09,4.09,0,0,1,.31,1.61,4.07,4.07,0,0,1-.88,2.62,5.31,5.31,0,0,1-2.35,1.63l3,5.11h-3l-2.81-4.71h-1.92L238,21.83h-2.73L237.6,8.49Zm-2.19,2.4-.67,3.83h2.43a2.39,2.39,0,0,0,1.69-.56,1.9,1.9,0,0,0,.59-1.47,1.78,1.78,0,0,0-.47-1.32,2,2,0,0,0-1.45-.48Z" fill="#003a42"/><path d="M261.21,18.86a6.94,6.94,0,0,1-1.14,1.29,7.23,7.23,0,0,1-1.47,1,7.83,7.83,0,0,1-3.68.91,7.15,7.15,0,0,1-2.66-.48,6.25,6.25,0,0,1-2.08-1.36,6,6,0,0,1-1.36-2,6.5,6.5,0,0,1-.49-2.57,6.94,6.94,0,0,1,.61-2.89,7.32,7.32,0,0,1,1.64-2.34A7.66,7.66,0,0,1,256,8.25a6.48,6.48,0,0,1,3.31.82,6.11,6.11,0,0,1,2.27,2.35l-2.06,1.52A4.74,4.74,0,0,0,258,11.35a3.87,3.87,0,0,0-2.18-.58,4.79,4.79,0,0,0-1.87.36,4.15,4.15,0,0,0-1.47,1,4.36,4.36,0,0,0-1,1.5,5.16,5.16,0,0,0-.08,3.57,3.7,3.7,0,0,0,.82,1.3,3.8,3.8,0,0,0,1.28.82,4.33,4.33,0,0,0,1.65.3,4.71,4.71,0,0,0,1.88-.37,4.36,4.36,0,0,0,1.51-1l.24-1.33h-3.66l.43-2.37H262Z" fill="#003a42"/><path d="M274.43,21.83H271.6l-.46-1.74h-5.38l-1.05,1.74h-3.09L270,8.25h.89Zm-7.32-4h3.46l-.95-4.39Z" fill="#003a42"/><path d="M282.39,21.83h-1.56l.13-.67a2.37,2.37,0,0,1-.87.61A2.67,2.67,0,0,1,279,22a2.71,2.71,0,0,1-1.13-.23,2.85,2.85,0,0,1-.86-.63,2.8,2.8,0,0,1-.55-.93,3.4,3.4,0,0,1-.18-1.11,3.77,3.77,0,0,1,.2-1.2,3.29,3.29,0,0,1,.62-1.13,3.11,3.11,0,0,1,1-.85,3.18,3.18,0,0,1,1.49-.33,2.75,2.75,0,0,1,1.21.23,2,2,0,0,1,.78.64l.71-4.06h1.7Zm-2.62-4.74a1.58,1.58,0,0,0-.69.15,1.5,1.5,0,0,0-.54.39,1.63,1.63,0,0,0-.36.58,1.82,1.82,0,0,0-.13.7,1.54,1.54,0,0,0,.39,1.11,1.4,1.4,0,0,0,1.09.44,1.65,1.65,0,0,0,.71-.16,1.76,1.76,0,0,0,.55-.41,1.9,1.9,0,0,0,.34-.59,1.74,1.74,0,0,0,.13-.67,1.83,1.83,0,0,0-.11-.64,1.44,1.44,0,0,0-.32-.49,1.35,1.35,0,0,0-.47-.3A1.63,1.63,0,0,0,279.77,17.09Z" fill="#00e7f6"/><path d="M287.71,15.58a3.11,3.11,0,0,1,1.13.2,2.76,2.76,0,0,1,.88.56,2.53,2.53,0,0,1,.56.84,2.7,2.7,0,0,1,.19,1,3.22,3.22,0,0,1-.05.63,2.6,2.6,0,0,1-.15.51h-4.33a1.37,1.37,0,0,0,.56.89,2,2,0,0,0,1.13.29,2.83,2.83,0,0,0,.93-.15,3.46,3.46,0,0,0,.83-.43l.62,1.14a4.76,4.76,0,0,1-1.2.67,4,4,0,0,1-1.34.22,3.68,3.68,0,0,1-1.31-.22,3.51,3.51,0,0,1-1-.63,2.79,2.79,0,0,1-.66-1,3,3,0,0,1-.23-1.2,3.25,3.25,0,0,1,.27-1.32,3.4,3.4,0,0,1,.74-1.08,3.43,3.43,0,0,1,2.45-1Zm-.12,1.36a1.6,1.6,0,0,0-1,.33,1.75,1.75,0,0,0-.6.89h2.86v0a1.08,1.08,0,0,0-.37-.9A1.35,1.35,0,0,0,287.59,16.94Z" fill="#00e7f6"/><path d="M184.34,35.5l6-6.19h3.47l-6.32,6.55,4.65,6.79h-3.06l-4.77-6.93-1.21,6.93h-2.73l2.35-13.34h2.72Z" fill="#003a42"/><path d="M196.64,42.65h-2.73l2.34-13.34H199Z" fill="#003a42"/><path d="M202.84,40.19h5.85l-.43,2.46h-8.57L202,29.31h2.73Z" fill="#003a42"/><path d="M218,29.07a7,7,0,0,1,2.61.48,6.1,6.1,0,0,1,3.43,3.4,6.72,6.72,0,0,1,.49,2.57,7.08,7.08,0,0,1-.61,2.9,7.39,7.39,0,0,1-1.64,2.33,7.9,7.9,0,0,1-2.41,1.57,7.65,7.65,0,0,1-2.93.57,6.94,6.94,0,0,1-2.62-.48,6,6,0,0,1-3.42-3.4,6.67,6.67,0,0,1-.49-2.56,7,7,0,0,1,.61-2.89,7.41,7.41,0,0,1,1.64-2.35,8,8,0,0,1,2.4-1.57A7.62,7.62,0,0,1,218,29.07Zm-.19,2.52A4.58,4.58,0,0,0,216,32a4.43,4.43,0,0,0-1.45,1,4.57,4.57,0,0,0-1,1.49,4.83,4.83,0,0,0-.36,1.87,4.33,4.33,0,0,0,.3,1.65,3.77,3.77,0,0,0,.81,1.28,3.49,3.49,0,0,0,1.23.82,4.09,4.09,0,0,0,1.59.3A4.35,4.35,0,0,0,219,40a4.43,4.43,0,0,0,1.45-1,4.85,4.85,0,0,0,1.35-3.38,4.26,4.26,0,0,0-.3-1.63,3.64,3.64,0,0,0-.81-1.27,3.34,3.34,0,0,0-1.24-.83A4.08,4.08,0,0,0,217.82,31.59Zm5.24-6.85L219.81,28h-2.07l1.94-3.77h3.46Z" fill="#003a42"/><path d="M238.79,42.65h-2.73l1.19-6.83-3.82,3.92h-.89l-2.79-4.45-1.29,7.36h-2.73l2.38-13.58H229v.06l4.35,7.17,6.85-7.17,0-.06h.91Z" fill="#003a42"/><path d="M252.76,31.78h-6.25l-.48,2.7h4.59l-.41,2.33H245.6L245,40.19h6.49l-.43,2.46h-9.22l2.35-13.34h9Z" fill="#003a42"/><path d="M265.4,31.78h-4.27l-1.92,10.87h-2.73l1.92-10.87h-4.29l.43-2.47h11.28Z" fill="#003a42"/><path d="M272.17,29.31a6.26,6.26,0,0,1,2,.29,4.5,4.5,0,0,1,1.48.82,3.48,3.48,0,0,1,.92,1.26,4.27,4.27,0,0,1,.31,1.61,4.05,4.05,0,0,1-.89,2.62,5.25,5.25,0,0,1-2.35,1.63l3,5.11h-3l-2.81-4.71h-1.92l-.83,4.71h-2.72l2.34-13.34ZM270,31.72l-.67,3.82h2.42a2.39,2.39,0,0,0,1.69-.56,1.91,1.91,0,0,0,.6-1.47,1.78,1.78,0,0,0-.48-1.32,1.94,1.94,0,0,0-1.44-.47Z" fill="#003a42"/><path d="M286,29.07a7.05,7.05,0,0,1,2.62.48,6.26,6.26,0,0,1,2.07,1.36A6.16,6.16,0,0,1,292,33a6.54,6.54,0,0,1,.49,2.57,6.92,6.92,0,0,1-.61,2.9,7.39,7.39,0,0,1-1.64,2.33,7.79,7.79,0,0,1-2.41,1.57,7.63,7.63,0,0,1-2.92.57,7,7,0,0,1-2.63-.48,6.18,6.18,0,0,1-2.07-1.35A6.25,6.25,0,0,1,278.9,39a6.67,6.67,0,0,1-.48-2.56,7,7,0,0,1,.6-2.89,7.41,7.41,0,0,1,1.64-2.35,7.9,7.9,0,0,1,2.41-1.57A7.54,7.54,0,0,1,286,29.07Zm-.18,2.52A4.5,4.5,0,0,0,284,32a4.37,4.37,0,0,0-1.46,1,4.74,4.74,0,0,0-1,1.49,4.82,4.82,0,0,0-.35,1.87,4.33,4.33,0,0,0,.29,1.65,3.77,3.77,0,0,0,.81,1.28,3.49,3.49,0,0,0,1.23.82,4.09,4.09,0,0,0,1.59.3A4.52,4.52,0,0,0,288.39,39a4.85,4.85,0,0,0,1.35-3.38,4.26,4.26,0,0,0-.3-1.63,3.76,3.76,0,0,0-.8-1.27,3.47,3.47,0,0,0-1.25-.83A4.07,4.07,0,0,0,285.82,31.59Z" fill="#003a42"/><path d="M299.62,29.07a4.74,4.74,0,0,1,2.67.71,5.75,5.75,0,0,1,1.78,1.94l-2,1.33A3.9,3.9,0,0,0,301,31.94a2.59,2.59,0,0,0-1.49-.41,1.75,1.75,0,0,0-1.32.41,1.31,1.31,0,0,0-.38.91,1.19,1.19,0,0,0,.38.91,4.76,4.76,0,0,0,1,.68l1.45.75a6.54,6.54,0,0,1,2,1.45,3,3,0,0,1,.73,2.07,4.12,4.12,0,0,1-.28,1.48,4,4,0,0,1-.87,1.35,4.51,4.51,0,0,1-1.46,1,5.36,5.36,0,0,1-2.1.37,5.87,5.87,0,0,1-1.77-.25,5.29,5.29,0,0,1-1.45-.71,5.86,5.86,0,0,1-1.17-1,6.07,6.07,0,0,1-.88-1.3l2-1.29a5.35,5.35,0,0,0,1.43,1.55,3.28,3.28,0,0,0,1.92.59,2.13,2.13,0,0,0,1.39-.41,1.28,1.28,0,0,0,.49-1.05,1.26,1.26,0,0,0-.39-.94,5,5,0,0,0-1.14-.76l-1.38-.72a6,6,0,0,1-1.9-1.47A3.14,3.14,0,0,1,295,33a3.7,3.7,0,0,1,.32-1.54,3.44,3.44,0,0,1,.93-1.25,4.68,4.68,0,0,1,1.45-.84A5.41,5.41,0,0,1,299.62,29.07Z" fill="#003a42"/><path d="M28.69,13.29,13.59,44.72h5.28l3.61-7.63H36.35l3.43,7.63h5.36L30.57,13.29ZM29.56,22l4.81,10.69H24.56Z" fill="#038ac7"/><rect x="50.24" y="13.29" width="4.9" height="31.44" fill="#038ac7"/><path d="M80.81,28.37H94.22v1a21.1,21.1,0,0,1-.86,6.27,13.23,13.23,0,0,1-2.83,4.72,14.85,14.85,0,0,1-11.49,5,16,16,0,0,1-11.66-4.81,15.48,15.48,0,0,1-4.86-11.48,15.5,15.5,0,0,1,4.94-11.61,17.45,17.45,0,0,1,19.12-3.31A20.7,20.7,0,0,1,92.79,19l-3.5,3.31q-4-5.16-9.73-5.16a11.82,11.82,0,0,0-8.67,3.45A11.32,11.32,0,0,0,67.41,29a11,11,0,0,0,3.88,8.73,11.85,11.85,0,0,0,7.89,3.15,10,10,0,0,0,6.54-2.36A8.31,8.31,0,0,0,89,32.85H80.81Z" fill="#038ac7"/><path d="M1.93,57h106.9V1H1.93ZM6.38,5.32h98V52.7h-98Z" fill="#038ac7"/></svg>