<svg xmlns="http://www.w3.org/2000/svg" width="328" height="116" viewBox="0 0 328 116"><rect width="328" height="116" fill="none"/><path d="M281,67H252.31V60.19H281ZM252.31,49H281v6.62H252.31Zm26.51,22.64c5.07,0,7.4-2.1,7.4-5.73V62.73a2.4,2.4,0,0,0-1.09-2.11l-3.27-2.8L285.13,55a2.39,2.39,0,0,0,1.09-2.11V50.1c0-3.63-2.33-5.73-7.4-5.73H247.17V71.65ZM225.61,67H197V60.19h28.65ZM197,49h28.65v6.62H197Zm26.51,22.64c5.06,0,7.4-2.1,7.4-5.73V62.73a2.4,2.4,0,0,0-1.09-2.11l-3.27-2.8L229.78,55a2.39,2.39,0,0,0,1.09-2.11V50.1c0-3.63-2.34-5.73-7.4-5.73H191.82V71.65ZM168.94,44.37V66.78H141.85V44.37H136.7V65.42c0,3.86,2.34,6.23,7,6.23H167.1c4.64,0,7-2.37,7-6.23V44.37ZM86.34,55.52V44.37H81.19V71.65h5.15V60.31h27.48V71.65H119V44.37h-5.14V55.52ZM66.19,49.24V44.37H36c-4.64,0-7,2.38-7,6.23V65.42c0,3.86,2.34,6.23,7,6.23H66.19V66.78H34.26V49.24Z" fill="#231f20"/><path d="M296.75,44.63a3.71,3.71,0,0,1,1.18.79,3.86,3.86,0,0,1,.79,4.11,3.82,3.82,0,0,1-.79,1.18,3.68,3.68,0,0,1-1.18.78,3.87,3.87,0,0,1-2.94,0,3.68,3.68,0,0,1-1.18-.78,3.79,3.79,0,0,1-.78-1.18,3.76,3.76,0,0,1,4.9-4.9Zm-2.72.5a2.91,2.91,0,0,0-1,.68,2.88,2.88,0,0,0-.65,1,3.2,3.2,0,0,0-.24,1.25,3.27,3.27,0,0,0,.24,1.25,3.07,3.07,0,0,0,.65,1,3.21,3.21,0,0,0,3.5.68,3.17,3.17,0,0,0,1.89-2.94,3.2,3.2,0,0,0-.24-1.25,3.05,3.05,0,0,0-.66-1,3,3,0,0,0-1-.68,3.07,3.07,0,0,0-1.25-.25A3,3,0,0,0,294,45.13Zm-.1,5.09v-4.3h1.65a1.59,1.59,0,0,1,1.07.3,1.16,1.16,0,0,1,.33.89,1.26,1.26,0,0,1-.09.49.93.93,0,0,1-.23.35,1.13,1.13,0,0,1-.34.23,1.87,1.87,0,0,1-.42.13l1.28,1.91h-.62l-1.21-1.91h-.89v1.91Zm1.71-2.38a1.66,1.66,0,0,0,.41-.08.66.66,0,0,0,.29-.23.72.72,0,0,0,.11-.42.75.75,0,0,0-.08-.37.72.72,0,0,0-.23-.23,1.17,1.17,0,0,0-.33-.11,2.34,2.34,0,0,0-.38,0h-1v1.49h.7Z" fill="#231f20"/></svg>