<svg xmlns="http://www.w3.org/2000/svg" width="328" height="116" viewBox="0 0 328 116"><rect width="328" height="116" fill="none"/><path d="M72.9,63.59V51a11.46,11.46,0,0,0-4.58-1c-4.59,0-7.69,3.2-7.69,8.59,0,4.91,2.88,7.58,6.78,7.58A7,7,0,0,0,72.9,63.59Zm8.81,3a6.34,6.34,0,0,1-2.51,4.75,7.17,7.17,0,0,1-4.75-2.88,11.38,11.38,0,0,1-8.06,2.93c-6.93,0-11.89-4.37-11.89-12.75,0-8,5.65-14,13.87-14a18.38,18.38,0,0,1,10.56,3V62.37C78.93,65,79.68,65.67,81.71,66.63Z" fill="#1d1d1b"/><path d="M108.54,45.56V68.77a27.16,27.16,0,0,1-12.06,2.66c-7.89,0-11.42-3.89-11.42-10V45.56a15.85,15.85,0,0,1,3.1-.27,14.4,14.4,0,0,1,3,.27V59.64c0,4.11,1.06,6.41,6.13,6.41a13.18,13.18,0,0,0,5.18-1V45.56a15.2,15.2,0,0,1,3-.27A14.94,14.94,0,0,1,108.54,45.56Z" fill="#1d1d1b"/><path d="M133,68.66a11.53,11.53,0,0,1-7.57,2.72c-5.44,0-9.45-2.45-9.45-8.53V50.63h-4.32a12.56,12.56,0,0,1-.21-2.51,12.17,12.17,0,0,1,.21-2.4H116V39a15,15,0,0,1,3-.27A13.54,13.54,0,0,1,122,39v6.72h9.44a8.93,8.93,0,0,1,.27,2.4,9.8,9.8,0,0,1-.27,2.51H122V61.46c0,3.73,1.76,4.69,4.27,4.69a6.58,6.58,0,0,0,4.21-1.7A6.33,6.33,0,0,1,133,68.66Z" fill="#1d1d1b"/><path d="M188.61,55.11V70.63a17.25,17.25,0,0,1-6.08,0V56.55c0-4.64-2.24-6.4-6.14-6.4a11.64,11.64,0,0,0-5.6,1.38v19.1a17,17,0,0,1-6,0v-22a19.64,19.64,0,0,1,12.11-4C185,44.6,188.61,49.29,188.61,55.11Z" fill="#1d1d1b"/><path d="M262.45,54.58v16a17,17,0,0,1-6,0V56.39c0-3.63-1.6-6.24-5.71-6.24a8.19,8.19,0,0,0-5.38,2.08,11.36,11.36,0,0,1,.26,2.35v16a13.66,13.66,0,0,1-3,.27,14.48,14.48,0,0,1-3.1-.27V56.39c0-3.63-1.55-6.24-5.65-6.24a10.46,10.46,0,0,0-5.18,1.38v19.1a13.93,13.93,0,0,1-3,.27,14.09,14.09,0,0,1-3-.27v-22a19.52,19.52,0,0,1,11.9-4,11.53,11.53,0,0,1,8.27,2.93,14.42,14.42,0,0,1,8.59-2.93C258.72,44.6,262.45,49.08,262.45,54.58Z" fill="#1d1d1b"/><path d="M266.62,70.63V45.4a14.88,14.88,0,0,1,3-.27,14.4,14.4,0,0,1,3,.27V70.63a13.48,13.48,0,0,1-3,.27A14.5,14.5,0,0,1,266.62,70.63Zm-.91-32.91a3.9,3.9,0,1,1,4,3.84A3.88,3.88,0,0,1,265.71,37.72Z" fill="#1d1d1b"/><path d="M165.39,76l-3.76-3.75a20.16,20.16,0,0,1-28.63,0l-3.76,3.76a1.36,1.36,0,0,0,0,2,26.85,26.85,0,0,0,36,0A1.36,1.36,0,0,0,165.39,76Z" fill="#a4ff00"/><path d="M133.13,43.7a20.16,20.16,0,0,1,28.37,0l3.75-3.74a1.36,1.36,0,0,0-.06-2,26.83,26.83,0,0,0-35.75,0,1.36,1.36,0,0,0-.06,2Z" fill="#a4ff00"/><path d="M199.08,57.54a6.66,6.66,0,0,1,.9-2.93A6.66,6.66,0,0,0,199.08,57.54Z" fill="#1d1d1b"/><path d="M211,62.22c-.14.17-.28.32-.42.47a6.6,6.6,0,0,1-2.16,1.48,6.67,6.67,0,0,1-6.47-.65,6.25,6.25,0,0,1-1-.85,6.68,6.68,0,0,1-1.39-2.11,6.79,6.79,0,0,1-.5-2.56c0-.15,0-.31,0-.46a6.66,6.66,0,0,1,.9-2.93,6.9,6.9,0,0,1,1.11-1.41,5.88,5.88,0,0,1,1-.8,6.57,6.57,0,0,1,3-1.08,4.92,4.92,0,0,1,.67,0A6.72,6.72,0,0,1,211,62.22Zm4.2-13.79a13.44,13.44,0,1,0,4,9.57A13.4,13.4,0,0,0,215.21,48.43Z" fill="#1d1d1b"/><path d="M142.69,53.2a6.71,6.71,0,1,1-2,4.79l-5.51,5.51a13.39,13.39,0,1,0,2.79-15,13.51,13.51,0,0,0-2.79,4L140.68,58A6.69,6.69,0,0,1,142.69,53.2Z" fill="#1d1d1b"/><path d="M135.17,63.5,140.68,58l-5.51-5.51a13.35,13.35,0,0,0,0,11Z" fill="#a4ff00"/></svg>