<svg xmlns="http://www.w3.org/2000/svg" width="595.28" height="124.84" viewBox="0 0 595.28 124.84"><path d="M54.29,38.88a5,5,0,0,1-.73,9.06,34.1,34.1,0,0,1-11.14,1.29V56.4c2.57,0,4.73,0,6.47-.17,1.42-.07,2.84-.22,4.25-.43A11.75,11.75,0,0,0,64.27,43.47v0a13.32,13.32,0,0,0-1.88-7,10.1,10.1,0,0,0-4.7-4.32,37.66,37.66,0,0,0-13.62-1.71H28.9v89.65h7.73V37.54h8.49A22.2,22.2,0,0,1,54.29,38.88Z" fill="#113b71"/><path d="M55.79,24.78a23.86,23.86,0,0,1,7,2.31,16,16,0,0,1,6.6,6.12,16.44,16.44,0,0,1,2.39,8.69q0,9.62-10.72,18.25a45.1,45.1,0,0,1,11,9.87,17.42,17.42,0,0,1,3.1,10.29A17,17,0,0,1,70.89,91.8a19.67,19.67,0,0,1-10.3,6.08,77.48,77.48,0,0,1-18.17,1.44v7.2c3.43,0,6.56-.11,9.37-.31s5.37-.51,7.58-.89a30.06,30.06,0,0,0,16.75-8.56,22.41,22.41,0,0,0,6.14-15.94A25.81,25.81,0,0,0,71.81,60.15,28.56,28.56,0,0,0,79.1,41.72a24,24,0,0,0-3.94-13.13A21.47,21.47,0,0,0,65.65,20a26.85,26.85,0,0,0-8.32-2.44A120.61,120.61,0,0,0,43.62,17h-29v103h7.71V24.25H42.42A106.61,106.61,0,0,1,55.79,24.78Z" fill="#113b71"/><path d="M56.15,84.34a21.44,21.44,0,0,1-5.49,1.58,49.41,49.41,0,0,1-8.24.56v7c2.75,0,4.78,0,6.07-.08s2.55-.15,3.7-.25a21,21,0,0,0,11.49-4.88,12.82,12.82,0,0,0,3.87-9.71,14.13,14.13,0,0,0-6-11.92,16.53,16.53,0,0,0-5.95-2.49,42.34,42.34,0,0,0-9.12-.87l-4-.07V70c1.38,0,3.12.08,5.26.21s3.81.3,5,.46a9.32,9.32,0,0,1,5.06,2.82,6.62,6.62,0,0,1,2,4.88A6,6,0,0,1,56.15,84.34Z" fill="#113b71"/><path d="M94.13,38.84A32.43,32.43,0,0,0,81.62,13,48.64,48.64,0,0,0,49.57,3H0V120.13H7.86V10.55h42.7a39.9,39.9,0,0,1,24.86,7.12A26.52,26.52,0,0,1,86.81,39.53a35.77,35.77,0,0,1-8.06,20.66A29.75,29.75,0,0,1,90,82.44a27.81,27.81,0,0,1-5.31,16.14,29.43,29.43,0,0,1-14.33,11,86.74,86.74,0,0,1-27.93,3.31v7.29a98.2,98.2,0,0,0,30.5-3.69,34.83,34.83,0,0,0,17.32-12.86,35.67,35.67,0,0,0,7.19-21.1A37.06,37.06,0,0,0,88,58.64,34.75,34.75,0,0,0,94.13,38.84Z" fill="#113b71"/><path d="M228.26,21.18a32.79,32.79,0,0,0-19.88-6.61,30.27,30.27,0,0,0-17.23,5.18,47,47,0,0,0-10.8,11A43.94,43.94,0,0,0,167.1,18.25,33.16,33.16,0,0,0,137.21,18a28.67,28.67,0,0,0-12.35,11.16,29.45,29.45,0,0,0-4,10.55,127.79,127.79,0,0,0-.92,18.86v61.51h7.51V58.23a80,80,0,0,1,1.75-19.14,21.71,21.71,0,0,1,5.87-10.47,23.28,23.28,0,0,1,16.3-6,26.3,26.3,0,0,1,11,2.36,21.65,21.65,0,0,1,8.26,6.23,24.77,24.77,0,0,1,4.8,10.6,98.72,98.72,0,0,1,1.29,18.65v59.63h7.81V56c0-3.5.1-6.47.32-8.84a54.5,54.5,0,0,1,1-6.72,27,27,0,0,1,4.55-9.88,19.18,19.18,0,0,1,7.75-5.65,26.84,26.84,0,0,1,10.42-2.11,25.91,25.91,0,0,1,11.82,2.78,20.23,20.23,0,0,1,8.32,7.34,29.52,29.52,0,0,1,3.43,10.2A133.29,133.29,0,0,1,233.08,62v58h7.6v-60a93.27,93.27,0,0,0-2.51-25.74A25.9,25.9,0,0,0,228.26,21.18Z" fill="#113b71"/><path d="M234.87,8a47.6,47.6,0,0,0-26.42-8,45,45,0,0,0-14.33,2.34,56.82,56.82,0,0,0-13.78,6.9A60.18,60.18,0,0,0,150.85,0,46.87,46.87,0,0,0,128,6.25a39.48,39.48,0,0,0-19.3,23,84.5,84.5,0,0,0-2.49,24.28v66.56h7.63V54.22a73.77,73.77,0,0,1,3.24-24.83A30,30,0,0,1,128.72,15a40.15,40.15,0,0,1,23.06-7,35.66,35.66,0,0,1,14.13,2.72,47.24,47.24,0,0,1,6.86,3.7,87.14,87.14,0,0,1,7.57,5.66,55.72,55.72,0,0,1,14.18-9.28A36,36,0,0,1,208.78,8a38.34,38.34,0,0,1,18.49,4.8A35.3,35.3,0,0,1,244.4,32.74a101.12,101.12,0,0,1,2.93,29.61v57.78H255V61.89A133.3,133.3,0,0,0,253,33.48,40.93,40.93,0,0,0,234.87,8Z" fill="#113b71"/><path d="M226.12,45.7a25.61,25.61,0,0,0-1.88-6.93,14.24,14.24,0,0,0-6-6.81,17.8,17.8,0,0,0-9.35-2.55,18.22,18.22,0,0,0-9.31,2.49,14.73,14.73,0,0,0-6,6.26,28.91,28.91,0,0,0-2,8Q191,50.65,191,61.11v59h8V61.49c0-4.58.08-8.26.26-11.06a52.74,52.74,0,0,1,.61-6,8.46,8.46,0,0,1,9.07-7.19,9.59,9.59,0,0,1,5,1.39,8.33,8.33,0,0,1,3.18,3.5,61.35,61.35,0,0,1,1.7,18.36v59.63h7.73V60.44c0-3.07,0-6.25-.18-9.53S226.12,45.93,226.12,45.7Z" fill="#113b71"/><path d="M164.66,34.29a17,17,0,0,0-12.6-5.24,17.58,17.58,0,0,0-9.71,2.82A14.22,14.22,0,0,0,136.43,39a72.64,72.64,0,0,0-1.88,20.52v60.55h7.8V60c0-3.94.05-7.12.17-9.51A50.53,50.53,0,0,1,143,45.4a9.86,9.86,0,0,1,3.13-6,9.6,9.6,0,0,1,11.56-.56,7.92,7.92,0,0,1,3.24,4.4,70.9,70.9,0,0,1,1.19,16.64v60.21h7.81V59.17a90.85,90.85,0,0,0-1.07-16.39A17.27,17.27,0,0,0,164.66,34.29Z" fill="#113b71"/><path d="M303.78,77.27V3H296V89.5a62,62,0,0,1,5.11-8.78Q302.37,78.91,303.78,77.27Z" fill="#113b71"/><rect x="281.41" y="3" width="7.8" height="117.11" fill="#113b71"/><rect x="266.85" y="3" width="7.8" height="117.11" fill="#113b71"/><path d="M595,83.3a20.24,20.24,0,0,0-1.89-5.55,12,12,0,0,0-3.58-4.16A9.62,9.62,0,0,0,583.69,72a15.65,15.65,0,0,0-10,3.46,31.86,31.86,0,0,0-7.37,8.49,42.84,42.84,0,0,0-4.63,10.83,44.81,44.81,0,0,0-1,4.43c-.43.58-.84,1.11-1.2,1.62-.76,1.17-1.93,2.75-3.53,4.73s-3.3,3.92-5.16,5.85a48.47,48.47,0,0,1-5.59,5,8.65,8.65,0,0,1-5,2.14,1.91,1.91,0,0,1-2.09-1.7,17.16,17.16,0,0,1-.3-3,51.24,51.24,0,0,1,.76-8.92c.51-2.92,1.09-5.87,1.75-8.79a23.09,23.09,0,0,0,.64-4.9,11.13,11.13,0,0,0-1.76-6.61A16.36,16.36,0,0,0,535,80.51c-1.62-1.14-3.3-2.19-5-3.15a11.78,11.78,0,0,1-4-3.7,47.14,47.14,0,0,0,.38-6c0-.66,0-1.55-.12-2.65a14.08,14.08,0,0,0-.64-3.2A11.77,11.77,0,0,0,524.38,59a2.42,2.42,0,0,0-2.13-1.2A4.16,4.16,0,0,0,519,59.42a15.09,15.09,0,0,0-2.34,3.89A22,22,0,0,0,515.24,68a22.39,22.39,0,0,0-.43,3.91,20.73,20.73,0,0,0,.77,5.6,14.53,14.53,0,0,0,2.51,5,31.09,31.09,0,0,1-4,12q-2.89,5-6.17,9.88l-1,1.27c-1.6,2-3.3,3.92-5.16,5.85a48.56,48.56,0,0,1-5.59,5,8.71,8.71,0,0,1-5,2.13,1.91,1.91,0,0,1-2.09-1.7,17.16,17.16,0,0,1-.3-3,51.32,51.32,0,0,1,.76-8.92c.51-2.92,1.09-5.87,1.75-8.78a23.18,23.18,0,0,0,.64-4.91,11.13,11.13,0,0,0-1.76-6.61A16.69,16.69,0,0,0,486,80.54c-1.62-1.14-3.3-2.18-5-3.15a11.78,11.78,0,0,1-4-3.7,47.14,47.14,0,0,0,.38-6c0-.66-.05-1.55-.12-2.64a14.06,14.06,0,0,0-.64-3.21A12,12,0,0,0,475.34,59a2.39,2.39,0,0,0-2.13-1.19,4.13,4.13,0,0,0-3.28,1.62,15.43,15.43,0,0,0-2.34,3.89,24.31,24.31,0,0,0-1.82,8.57,20.71,20.71,0,0,0,.77,5.59,14.53,14.53,0,0,0,2.51,5,31.09,31.09,0,0,1-4,12c-.87,1.5-1.78,3-2.72,4.47a29.94,29.94,0,0,1-12.23,11.87,33.78,33.78,0,0,0,2.67-5,38.92,38.92,0,0,0,2.39-8.11A46.93,46.93,0,0,0,456,89.3a31.74,31.74,0,0,0-.56-5.92,20.21,20.21,0,0,0-1.88-5.55,12,12,0,0,0-3.58-4.16,9.63,9.63,0,0,0-5.8-1.63,15.61,15.61,0,0,0-10,3.46A31.88,31.88,0,0,0,426.75,84a42.66,42.66,0,0,0-4.62,10.83c-.08.28-.13.53-.2.79a2.7,2.7,0,0,0-.43.53c-.54.78-1,1.45-1.33,2-.83,1.35-2.05,3-3.66,5.16a66.15,66.15,0,0,1-5.16,6,42.73,42.73,0,0,1-5.71,5,9.71,9.71,0,0,1-5.6,2.13,3,3,0,0,1-2-.56,3.56,3.56,0,0,1-1-1.38,6.55,6.55,0,0,1-.38-1.85c-.05-.66-.05-1.3-.05-1.88A106.5,106.5,0,0,1,397.85,95,105.64,105.64,0,0,0,399,79.25a23,23,0,0,0-.3-3.7,12.76,12.76,0,0,0-1.14-3.66,7.61,7.61,0,0,0-2.21-2.82,5.44,5.44,0,0,0-3.53-1.14,11.14,11.14,0,0,0-6.1,2.09,32.55,32.55,0,0,0-6.31,5.46A82.83,82.83,0,0,0,373.4,83c-2,2.77-3.79,5.55-5.46,8.36s-3.18,5.47-4.53,7.93-2.39,4.55-3.15,6.23c.18-.84.4-2.29.68-4.34s.63-4.23,1-6.48.76-4.34,1.14-6.22a19.51,19.51,0,0,1,.92-3.59c1-1.93,2.06-3.86,3.16-5.79s2.13-3.92,3.15-5.92a170.61,170.61,0,0,0,10.51-25.82A89.86,89.86,0,0,0,385.06,20a28.74,28.74,0,0,0-.25-3.59,14.91,14.91,0,0,0-1-3.88,8.88,8.88,0,0,0-2.08-3.08,4.86,4.86,0,0,0-3.46-1.27,7.77,7.77,0,0,0-3.41.81,11.31,11.31,0,0,0-2.95,2.14,23,23,0,0,0-2.39,2.82,23.93,23.93,0,0,0-1.85,3,70.91,70.91,0,0,0-5.16,14q-2.13,8.13-3.66,16.85c-1,5.82-1.85,11.6-2.59,17.32S354.92,76,354.39,80.48c-.43,4-.86,8-1.32,11.94-.18,1.6-.38,3.24-.58,4.83a2.67,2.67,0,0,0-.87.77c-.51.71-1,1.38-1.38,2.08-.77,1.17-1.89,2.72-3.41,4.65a66.77,66.77,0,0,1-4.91,5.59,41.29,41.29,0,0,1-5.41,4.73,8.86,8.86,0,0,1-5,2,2.55,2.55,0,0,1-2.34-1.58,12.09,12.09,0,0,1-1.19-3.66,24.47,24.47,0,0,1-.43-4.09c0-1.35,0-2.34,0-3a60.44,60.44,0,0,1,.43-7,39.61,39.61,0,0,1,1.44-7c.33-.93.79-2.15,1.39-3.66a10.8,10.8,0,0,0,.89-3.66,1.55,1.55,0,0,0-.93-1.63,5.21,5.21,0,0,0-1.95-.38,3.26,3.26,0,0,0-2.7,1.19,12.72,12.72,0,0,0-1.57,2.57c-.43.84-1,2.11-1.85,3.84s-1.76,3.58-2.82,5.59-2.24,4.09-3.46,6.22a59.33,59.33,0,0,1-3.7,5.8A31,31,0,0,1,309,110.9a4.83,4.83,0,0,1-3.15,1.7,1.27,1.27,0,0,1-1.39-1.14,8.43,8.43,0,0,1-.25-1.88,31.13,31.13,0,0,1,2.9-13.4,43,43,0,0,1,13.65-16.35c2.05-1.47,4.22-2.87,6.47-4.22a5.71,5.71,0,0,0,.88-.56,1.14,1.14,0,0,0,.38-.92,3.63,3.63,0,0,0-1.38-2.65,4.17,4.17,0,0,0-2.78-1.27A17.75,17.75,0,0,0,313.68,74a40.91,40.91,0,0,0-9.05,9.38,53.61,53.61,0,0,0-6.36,11.9,32.2,32.2,0,0,0-2.39,11.21,31.7,31.7,0,0,0,.31,4,16.54,16.54,0,0,0,1.14,4.27,9.13,9.13,0,0,0,2.34,3.41,5.28,5.28,0,0,0,3.76,1.39,8.71,8.71,0,0,0,5.09-1.88,34.48,34.48,0,0,0,5-4.53,53.13,53.13,0,0,0,4.35-5.46q1.93-2.82,3.2-4.73a43.48,43.48,0,0,0,.12,5.59,26.51,26.51,0,0,0,1.28,6.41,15,15,0,0,0,2.89,5.29,6.28,6.28,0,0,0,5,2.21,13.53,13.53,0,0,0,6.61-1.89,33.92,33.92,0,0,0,6.28-4.65,53.72,53.72,0,0,0,5.46-5.92c.92-1.17,1.78-2.26,2.56-3.27-.17,1.38-.35,2.74-.55,4.09a41.2,41.2,0,0,0-.51,6.47c0,.66,0,1.44.12,2.34a8,8,0,0,0,.63,2.46,6.36,6.36,0,0,0,1.33,2,3,3,0,0,0,2.21.81,4.49,4.49,0,0,0,2.51-.76,8.34,8.34,0,0,0,2-1.88,25.73,25.73,0,0,0,1.49-2.39,26.7,26.7,0,0,0,1.2-2.39c.51-1.1,1.38-2.87,2.69-5.34s2.78-5.26,4.53-8.37,3.58-6.3,5.59-9.63,3.94-6.35,5.8-9.12a56.72,56.72,0,0,1,5.16-6.79c1.59-1.75,2.84-2.64,3.76-2.64.66,0,1,.4,1.14,1.19a14.35,14.35,0,0,1,.12,1.85v1c-.43,4.52-.86,9-1.32,13.59s-.68,9.06-.68,13.6c0,1.17,0,2.75,0,4.73a29.7,29.7,0,0,0,.68,5.72,14.5,14.5,0,0,0,2,4.78,4.44,4.44,0,0,0,4,2,18.47,18.47,0,0,0,8.88-2.44,39.5,39.5,0,0,0,8.36-6.18,60.64,60.64,0,0,0,7-8c.35-.47.68-1,1-1.45a27.16,27.16,0,0,0,.61,5.24,18.76,18.76,0,0,0,2,5.41,11.92,11.92,0,0,0,3.7,4,10,10,0,0,0,5.72,1.57,14.44,14.44,0,0,0,5.16-.92,23.83,23.83,0,0,0,4.65-2.34c.46-.31.81-.66,1.24-1,.93-.15,1.85-.33,2.85-.56a36.42,36.42,0,0,0,17.79-12.07c.61-.82,1.07-1.53,1.5-2.16,0-.08.1-.13.15-.21a5.15,5.15,0,0,0,.33-.61l.23-.4c.92-1.55,1.88-3.13,2.69-4.78,1-2,1.91-4,2.7-6.05s1.52-3.94,2.21-5.8A15.26,15.26,0,0,1,479.05,88a6.2,6.2,0,0,1,2.34,5q0,3.51-.31,6.93c-.2,2.29-.3,4.58-.3,6.94,0,1.49.05,3.27.18,5.28a23,23,0,0,0,1.06,5.7,12.42,12.42,0,0,0,2.65,4.62,6.34,6.34,0,0,0,4.9,1.91,13.08,13.08,0,0,0,6.74-2.39,47.51,47.51,0,0,0,7.17-5.8,80.46,80.46,0,0,0,6.4-7l1.35-1.7a30.06,30.06,0,0,0,3.61-4.58q1.75-2.78,3.28-5.79c1-2,1.9-4,2.69-6.06s1.53-3.93,2.21-5.79a15,15,0,0,1,5.08,2.77,6.13,6.13,0,0,1,2.34,5c0,2.33-.1,4.65-.3,6.93s-.31,4.58-.31,6.93c0,1.5,0,3.28.18,5.29a22.6,22.6,0,0,0,1.07,5.7,12.54,12.54,0,0,0,2.64,4.62,6.3,6.3,0,0,0,4.91,1.9,13,13,0,0,0,6.73-2.39,46.47,46.47,0,0,0,7.17-5.79,82.19,82.19,0,0,0,6.41-7c.38-.47.71-.89,1-1.33a31,31,0,0,0,.46,3.33,18.82,18.82,0,0,0,2,5.42,11.88,11.88,0,0,0,3.7,4,10.08,10.08,0,0,0,5.72,1.58,14.45,14.45,0,0,0,5.16-.93,23.29,23.29,0,0,0,4.65-2.34,24.49,24.49,0,0,0,6.18-5.79,35.39,35.39,0,0,0,4.16-7.3,38.66,38.66,0,0,0,2.39-8.1,47.9,47.9,0,0,0,.76-8.37A22.27,22.27,0,0,0,595,83.3ZM364.2,66.5q.69-5.22,1.75-11.82T368.47,41q1.44-7.1,3.15-13a63.19,63.19,0,0,1,3.53-9.7c1.22-2.52,2.49-3.79,3.84-3.79.4,0,.71.25.89.76a15.4,15.4,0,0,1,.43,1.75,11.38,11.38,0,0,1,.18,2v1.39a60.64,60.64,0,0,1-1.63,12.94q-1.65,7.17-4.09,14.46c-1.63,4.89-3.46,9.56-5.47,14.08s-4,8.52-5.92,12C363.48,72.42,363.74,70,364.2,66.5Zm68.63,48.32a7.35,7.35,0,0,1-1.95-2.57,11.31,11.31,0,0,1-.93-3.33,23.08,23.08,0,0,1-.25-3.32,33.93,33.93,0,0,1,.92-7.17,43.23,43.23,0,0,1,2.77-8.32,25.34,25.34,0,0,1,4.53-6.94,8.33,8.33,0,0,1,6.23-2.9,4.64,4.64,0,0,1,3.27,1.2,8.8,8.8,0,0,1,2,2.89,13.31,13.31,0,0,1,1,3.7,27.8,27.8,0,0,1,.25,3.53,37.42,37.42,0,0,1-.51,6,32.61,32.61,0,0,1-1.57,6,26,26,0,0,1-2.78,5.46,19.37,19.37,0,0,1-4.09,4.48,15.06,15.06,0,0,1-2.69,1.7,7.1,7.1,0,0,1-3.08.68,4.86,4.86,0,0,1-3.13-1ZM589.69,97.56a31.85,31.85,0,0,1-1.58,6,25.26,25.26,0,0,1-2.77,5.46,19.37,19.37,0,0,1-4.09,4.48,15.14,15.14,0,0,1-2.7,1.7,7,7,0,0,1-3.07.68,4.67,4.67,0,0,1-3.15-1.06,7.59,7.59,0,0,1-2-2.57,11.7,11.7,0,0,1-.92-3.33,23.12,23.12,0,0,1-.26-3.33,33.39,33.39,0,0,1,.93-7.17,42.11,42.11,0,0,1,2.77-8.32,25.44,25.44,0,0,1,4.53-6.93,8.33,8.33,0,0,1,6.22-2.9,4.64,4.64,0,0,1,3.28,1.19,8.94,8.94,0,0,1,2,2.9,13.29,13.29,0,0,1,1,3.7,26.08,26.08,0,0,1,.26,3.53,36.52,36.52,0,0,1-.49,6Z" fill="#113b71"/></svg>