<svg xmlns="http://www.w3.org/2000/svg" width="212.83" height="32.87" viewBox="0 0 212.83 32.87"><path d="M171.91,6.52a4.75,4.75,0,1,0,4.75,4.75A4.75,4.75,0,0,0,171.91,6.52Z" fill="#fff"/><path d="M170.55,13.57Zm2.72-4.81Z" fill="#0083a2"/><path d="M171.91,13a1.7,1.7,0,1,0-1.69-1.7A1.7,1.7,0,0,0,171.91,13Zm-1.28-1.7a1.29,1.29,0,1,1,1.28,1.29A1.28,1.28,0,0,1,170.63,11.27Z" fill="#0083a2"/><path d="M173.6,14.09h-3.38a1.15,1.15,0,0,1-1.15-1.15V9.6a1.15,1.15,0,0,1,1.15-1.15h3.38a1.16,1.16,0,0,1,1.16,1.15v3.34A1.16,1.16,0,0,1,173.6,14.09Zm-3.38-5.22a.73.73,0,0,0-.73.73v3.34a.73.73,0,0,0,.73.73h3.38a.74.74,0,0,0,.74-.73V9.6a.74.74,0,0,0-.74-.73Z" fill="#0083a2"/><path d="M173.63,9.38a.27.27,0,0,0-.27.27.27.27,0,0,0,.54,0A.27.27,0,0,0,173.63,9.38Z" fill="#0083a2"/><path d="M192,11.27A4.75,4.75,0,1,0,187.27,16,4.75,4.75,0,0,0,192,11.27Z" fill="#fff"/><rect x="185.01" y="10.48" width="1.1" height="3.14" fill="#0083a2"/><path d="M185.56,8.91a.55.55,0,1,0,.55.55A.55.55,0,0,0,185.56,8.91Z" fill="#0083a2"/><path d="M189.72,11.45a1,1,0,0,0-1.17-1c-.57,0-.8.09-.93.34h0v-.34h-.89v3.14h.92V12c0-.41.08-.72.58-.72s.54.38.54.75v1.61h.95S189.73,11.59,189.72,11.45Z" fill="#0083a2"/><path d="M161.3,11.27A4.75,4.75,0,1,0,156.56,16,4.75,4.75,0,0,0,161.3,11.27Z" fill="#fff"/><path d="M157,10.14V9.7c0-.22.14-.27.24-.27h.64v-1H157a1.1,1.1,0,0,0-1.19,1.18v.5h-.55v1.13h.56v2.81h1.12V11.27h.84l.1-1.13Z" fill="#0083a2"/><path d="M138.42,22.21l-.47.35L136.67,26h-.39l-1-2.43-1,2.43h-.39l-1.4-3.31-.42-.45v-.13h1.85v.13l-.34.41.94,2.23h0l.61-1.51-.27-.65-.53-.48v-.13h2v.13l-.37.42.94,2.22h0l.88-2.28-.53-.34v-.15h1.14Z" fill="#fff"/><path d="M144.86,22.21l-.47.35L143.11,26h-.39l-1-2.43-1,2.43h-.39l-1.4-3.31-.42-.45v-.13h1.86v.13l-.34.41.93,2.23h0l.61-1.51-.28-.65-.53-.48v-.13h2v.13l-.37.42.93,2.22h0l.88-2.28-.53-.34v-.15h1.14Z" fill="#fff"/><path d="M151.29,22.21l-.46.35L149.54,26h-.39l-1-2.43-1,2.43h-.39l-1.4-3.31-.42-.45v-.13h1.85v.13l-.33.41.93,2.23h0l.6-1.51-.27-.65-.53-.48v-.13h2v.13l-.36.42.93,2.22h0l.88-2.28-.53-.34v-.15h1.13Z" fill="#fff"/><path d="M152.6,25.35a.64.64,0,0,1-1.28,0,.64.64,0,1,1,1.28,0Z" fill="#fff"/><path d="M160.52,25.79V26h-2.18v-.16l.49-.34v-2c0-.57-.22-.86-.65-.86s-.78.48-.78,1.05v1.85l.5.34V26h-2.1v-.16l.5-.34V23.38c0-.55-.2-.83-.63-.83s-.8.49-.8,1.11v1.79l.51.34V26h-2.2v-.16l.59-.34v-2.9l-.59-.34v-.15h1.69v1A1.33,1.33,0,0,1,156.2,22,1.11,1.11,0,0,1,157.38,23,1.32,1.32,0,0,1,158.71,22c.75,0,1.22.46,1.22,1.44v2.06Z" fill="#fff"/><path d="M165,24.59l.12.05a1.91,1.91,0,0,1-1.88,1.41,2.05,2.05,0,1,1,0-4.1,1.88,1.88,0,0,1,2,2.05h-2.92a1.46,1.46,0,0,0,1.45,1.45A1.4,1.4,0,0,0,165,24.59Zm-2.74-.74h1.84c0-1.29-.29-1.76-.89-1.76S162.27,22.68,162.27,23.85Z" fill="#fff"/><path d="M170.72,25.79V26h-2.19v-.16l.49-.34v-2c0-.57-.22-.86-.67-.86s-.86.51-.86,1.12v1.78l.49.34V26h-2.19v-.16l.59-.34v-2.9l-.59-.34v-.15h1.7v1.1A1.35,1.35,0,0,1,168.87,22c.77,0,1.26.46,1.26,1.44v2.06Z" fill="#fff"/><path d="M174,24.9a1.23,1.23,0,0,1-1.22,1.15,1.16,1.16,0,0,1-1.19-1.27V22.21H171v-.15h.54l.95-1.27h.15v1.27h1.22v.15h-1.22v2.62a.56.56,0,0,0,.54.63c.34,0,.53-.23.63-.6Z" fill="#fff"/><path d="M178.8,25.46a1,1,0,0,1-.94.59.86.86,0,0,1-.9-.87h0a1.15,1.15,0,0,1-1.22.87,1.11,1.11,0,0,1-1.23-1.1c0-.75.58-1.12,1.44-1.12h1V22.75a.63.63,0,0,0-.67-.64h-.12l-1.24,1.31h-.17V22.26a5.12,5.12,0,0,1,1.52-.31c1.13,0,1.77.42,1.77,1.42v1.8c0,.26.14.44.34.44a.45.45,0,0,0,.35-.2ZM177,24.59V24l-.56,0a.74.74,0,0,0-.71.82c0,.45.22.7.57.7S177,25.18,177,24.59Z" fill="#fff"/><path d="M182.69,24.87c0,.94-.91,1.18-1.66,1.18a2.9,2.9,0,0,1-1.19-.24l-.36.18h-.15V24.42h.15l1,1.23a.64.64,0,0,0,.52.23c.52,0,.72-.24.72-.59a.75.75,0,0,0-.59-.71l-.72-.24c-.66-.22-1.08-.56-1.08-1.19,0-.88.82-1.2,1.59-1.2a3.42,3.42,0,0,1,1.11.21l.36-.15h.17V23.5h-.17l-1-1.2a.56.56,0,0,0-.46-.2.62.62,0,0,0-.69.65c0,.36.19.53.65.7l.72.24C182.24,23.92,182.69,24.22,182.69,24.87Z" fill="#fff"/><path d="M187.35,24.59l.13.05a1.92,1.92,0,0,1-1.89,1.41,2.05,2.05,0,1,1,0-4.1,1.87,1.87,0,0,1,2,2.05h-2.92a1.47,1.47,0,0,0,1.46,1.45A1.38,1.38,0,0,0,187.35,24.59Zm-2.74-.74h1.85c0-1.29-.3-1.76-.89-1.76S184.62,22.68,184.61,23.85Z" fill="#fff"/><path d="M192.42,22.23h-1.19a1.12,1.12,0,0,1,.6.95c0,.67-.74,1.2-1.72,1.2a2.57,2.57,0,0,1-1-.18.49.49,0,0,0-.15.33c0,.17.13.27.36.27h1.42c1,0,1.45.38,1.45,1.08,0,.91-.92,1.43-2.33,1.43h0c-1.23,0-1.81-.24-1.81-.79s.35-.67.94-.76a.83.83,0,0,1-.67-.8,1,1,0,0,1,.63-.87,1.07,1.07,0,0,1-.58-.91c0-.7.73-1.23,1.73-1.23a2.3,2.3,0,0,1,.71.11l1.47-.82h.13Zm-2.63,3.59c-.6,0-1,.14-1,.62s.41.71,1.13.71h0c.89,0,1.41-.32,1.41-.78s-.25-.55-.74-.55Zm1-2.64c0-.67-.19-1.05-.65-1.05s-.66.38-.66,1.05.2,1,.66,1S190.76,23.82,190.76,23.18Z" fill="#fff"/><path d="M194.14,25.35a.65.65,0,0,1-1.29,0,.65.65,0,1,1,1.29,0Z" fill="#fff"/><path d="M198.72,24.72a1.94,1.94,0,0,1-1.9,1.33A2,2,0,0,1,194.75,24a2.06,2.06,0,0,1,2.17-2,3,3,0,0,1,1.18.25l.38-.16h.15v1.78h-.15l-.82-1.45a.81.81,0,0,0-.65-.26c-.78,0-1.07.75-1.07,1.54,0,1.16.53,1.8,1.43,1.8a1.31,1.31,0,0,0,1.23-.79Z" fill="#fff"/><path d="M203.73,24A2.18,2.18,0,1,1,201.55,22,2.07,2.07,0,0,1,203.73,24Zm-1.18,0c0-1.38-.36-1.89-1-1.89s-1,.51-1,1.89.36,1.89,1,1.89S202.55,25.35,202.55,24Z" fill="#fff"/><path d="M211.7,25.79V26h-2.19v-.16l.49-.34v-2c0-.57-.22-.86-.65-.86s-.77.48-.77,1.05v1.85l.49.34V26H207v-.16l.5-.34V23.38c0-.55-.2-.83-.63-.83s-.79.49-.79,1.11v1.79l.5.34V26h-2.2v-.16l.59-.34v-2.9l-.59-.34v-.15h1.7v1A1.32,1.32,0,0,1,207.38,22,1.1,1.1,0,0,1,208.55,23,1.32,1.32,0,0,1,209.88,22c.75,0,1.22.46,1.22,1.44v2.06Z" fill="#fff"/><rect x="109.42" y="1.31" width="0.7" height="30.27" fill="#fff"/><path d="M22.58,8.35v15l2,1.22v.56H16.51V24.6l2-1.22V9.27L12,21.05h-.78L4.3,9.32V23.38l2,1.22v.56H1.64V24.6l2.05-1.22V8.52l-2-1.39V6.58H7.58l6,10.15,5.6-10.15H24.6v.55Z" fill="#00e8f7"/><path d="M40.16,20.33l.44.17a6.77,6.77,0,0,1-6.71,5c-4.3,0-7.73-3-7.73-7.3s3.41-7.29,7.65-7.29,7,2.8,7,7.29H30.4a5.25,5.25,0,0,0,5.18,5.16A4.91,4.91,0,0,0,40.16,20.33ZM30.4,17.67H37c0-4.58-1-6.27-3.16-6.27S30.43,13.51,30.4,17.67Z" fill="#00e8f7"/><path d="M59.82,24.6v.56H52V24.6l1.75-1.22V16.12c0-2-.81-3.08-2.39-3.08-2,0-3.08,1.83-3.08,4v6.35l1.75,1.22v.56H42.27V24.6l2.11-1.22V13.07l-2.11-1.22v-.56h6v3.94c.59-2.55,2.08-4.3,4.91-4.3s4.49,1.64,4.49,5.1v7.35Z" fill="#00e8f7"/><path d="M70.78,21.44c-.39,2.22-1.78,4.08-4.36,4.08-2.35,0-4.24-1.58-4.24-4.52V11.85H60.27v-.56h1.91l3.41-4.52h.53v4.52h4.32v.56H66.12v9.31c0,1.36.77,2.28,1.91,2.28s1.89-.83,2.25-2.14Z" fill="#00e8f7"/><path d="M87.22,23.41a3.32,3.32,0,0,1-3.33,2.11,3.09,3.09,0,0,1-3.21-3.11h-.09a4.09,4.09,0,0,1-4.35,3.11c-2.66,0-4.38-1.64-4.38-3.91,0-2.67,2.08-4,5.16-4h3.63V13.76a2.24,2.24,0,0,0-2.41-2.28h-.42l-4.41,4.69H72.8V12a18.7,18.7,0,0,1,5.41-1.08c4,0,6.29,1.5,6.29,5.05v6.4c0,.95.5,1.58,1.22,1.58A1.58,1.58,0,0,0,87,23.24Zm-6.57-3.08V18l-2,.14a2.68,2.68,0,0,0-2.55,2.94c0,1.61.8,2.49,2.05,2.49C79.62,23.6,80.65,22.44,80.65,20.33Z" fill="#00e8f7"/><path d="M92.85,23a2.29,2.29,0,0,1-4.58,0,2.29,2.29,0,1,1,4.58,0Z" fill="#fff"/></svg>