<svg xmlns="http://www.w3.org/2000/svg" width="198" height="46" viewBox="0 0 198 46"><path d="M46.7,7.48V39.22L51,41.8V43H33.88V41.8l4.27-2.58V9.41L24.27,34.3H22.63L8.11,9.53V39.22l4.27,2.58V43H2.49V41.8l4.33-2.58V7.83L2.49,4.9V3.73H15L27.79,25.16,39.62,3.73H51V4.9Z"/><path d="M83.83,32.78l.94.35c-2.23,6.73-7.32,10.6-14.17,10.6-9.08,0-16.34-6.33-16.34-15.4s7.2-15.41,16.16-15.41,14.76,5.92,14.76,15.41h-22c.35,5.68,4.45,10.89,11,10.89C78.21,39.22,81.61,37.23,83.83,32.78ZM63.22,27.16H77.1c-.12-9.67-2.23-13.24-6.68-13.24S63.28,18.37,63.22,27.16Z"/><path d="M125.36,41.8V43H108.9V41.8l3.69-2.58V23.88c0-4.28-1.7-6.51-5-6.51-4.16,0-6.5,3.87-6.5,8.44V39.22l3.69,2.58V43H88.28V41.8l4.45-2.58V17.43l-4.45-2.57V13.69h12.77V22c1.23-5.39,4.39-9.08,10.37-9.08,5.79,0,9.48,3.46,9.48,10.78V39.22Z"/><path d="M148.49,35.12c-.82,4.69-3.75,8.61-9.2,8.61-5,0-9-3.34-9-9.55V14.86h-4V13.69h4l7.21-9.55h1.11v9.55h9.14v1.17h-9.14V34.53c0,2.87,1.64,4.81,4,4.81,2.58,0,4-1.76,4.74-4.51Z"/><path d="M183.22,39.28a7,7,0,0,1-7,4.45c-2.58,0-6.33-1.29-6.8-6.56h-.17c-.82,3.16-3.34,6.56-9.2,6.56-5.62,0-9.25-3.46-9.25-8.26,0-5.62,4.39-8.43,10.89-8.43h7.68V18.9a4.72,4.72,0,0,0-5.1-4.8h-.88L154.05,24h-1.29V15.21c5.33-1.7,8.9-2.29,11.42-2.29,8.49,0,13.3,3.17,13.3,10.66V37.11c0,2,1.05,3.34,2.57,3.34a3.33,3.33,0,0,0,2.64-1.52Zm-13.88-6.5V27.92l-4.22.29c-4.39.59-5.39,3.57-5.39,6.21,0,3.39,1.7,5.27,4.34,5.27C167.17,39.69,169.34,37.23,169.34,32.78Z"/><path d="M195.1,38.46a4.83,4.83,0,0,1-9.66,0,4.83,4.83,0,1,1,9.66,0Z" fill="#00e8f7"/></svg>